<svg width="12" height="20" viewBox="0 0 12 20" fill="none" xmlns="http://www.w3.org/2000/svg">
<path d="M10.6692 10.7512C10.8766 10.5438 10.9805 10.2714 10.9805 9.99995C10.9805 9.72848 10.8766 9.45609 10.6692 9.24873L2.54429 1.12379C2.54427 1.12377 2.54425 1.12375 2.54424 1.12373C2.1292 0.708498 1.45684 0.708961 1.04186 1.12368C0.62664 1.53863 0.626721 2.21108 1.04181 2.62616L8.4156 9.99995L1.04186 17.3737C1.04184 17.3737 1.04182 17.3737 1.04181 17.3737C0.626568 17.7888 0.627034 18.4611 1.04175 18.8761C1.45671 19.2913 2.12915 19.2912 2.54424 18.8762L10.6692 10.7512Z" fill="white" stroke="white" stroke-width="0.5"/>
</svg>
