<svg width="25" height="24" viewBox="0 0 25 24" fill="none" xmlns="http://www.w3.org/2000/svg">
<path fill-rule="evenodd" clip-rule="evenodd" d="M24.0659 12.0002C24.0659 18.6277 18.6936 24.0002 12.0665 24.0002C5.43943 24.0002 0.0671082 18.6277 0.0671082 12.0002C0.0671082 5.37282 5.43943 0.000244141 12.0665 0.000244141C18.6936 0.000244141 24.0659 5.37282 24.0659 12.0002ZM14.9493 7.54168C16.6185 8.1149 17.8395 8.97322 17.6 10.5706C17.426 11.7403 16.7752 12.306 15.9105 12.504C17.0968 13.1193 17.5011 14.2869 17.1254 15.6987C16.4121 17.7305 14.7166 17.9016 12.4614 17.4769L11.9138 19.661L10.5919 19.3324L11.132 17.1775C10.7892 17.0928 10.439 17.002 10.0782 16.9052L9.53585 19.0705L8.21544 18.7419L8.76229 16.5533L6.09961 15.8841L6.75643 14.376C6.75643 14.376 7.73111 14.6333 7.71755 14.6146C8.09191 14.7069 8.25837 14.4638 8.3239 14.3025L9.80777 8.3745C9.82434 8.09464 9.72717 7.74201 9.19163 7.60846C9.21196 7.5942 8.23126 7.37062 8.23126 7.37062L8.58302 5.96384L11.2495 6.62184L11.7918 4.45803L13.113 4.78665L12.5819 6.9077C12.9374 6.98798 13.2945 7.06976 13.6417 7.15604L14.169 5.0485L15.4909 5.37712L14.9493 7.54168ZM11.7862 11.1509C12.6867 11.3896 14.6462 11.9091 14.9877 10.547C15.3361 9.15333 13.4325 8.73243 12.5004 8.52634L12.5003 8.52633L12.5002 8.52629C12.3946 8.50296 12.3015 8.48238 12.2256 8.46345L11.5673 11.0939C11.63 11.1094 11.7037 11.129 11.7862 11.1509L11.7862 11.1509ZM10.766 15.3859C11.8445 15.67 14.2034 16.2914 14.5787 14.7904C14.9629 13.2557 12.6758 12.7446 11.5599 12.4951C11.4352 12.4673 11.3252 12.4427 11.2351 12.4203L10.509 15.3194C10.5828 15.3376 10.6692 15.3604 10.766 15.3859Z" fill="#F7931A"/>
</svg>
