<svg width="16" height="17" viewBox="0 0 16 17" fill="none" xmlns="http://www.w3.org/2000/svg">
    <g clip-path="url(#clip0_1306_4109)">
        <path d="M9.95822 8.22001C10.3842 8.22001 10.7928 8.05079 11.094 7.74956C11.3952 7.44834 11.5644 7.03979 11.5644 6.61379C11.5644 6.18779 11.3952 5.77924 11.094 5.47802C10.7928 5.17679 10.3842 5.00757 9.95822 5.00757C9.53223 5.00757 9.12368 5.17679 8.82245 5.47802C8.52123 5.77924 8.352 6.18779 8.352 6.61379C8.352 7.03979 8.52123 7.44834 8.82245 7.74956C9.12368 8.05079 9.53223 8.22001 9.95822 8.22001V8.22001ZM5.57067 12.2929C5.39914 12.3813 5.20491 12.4157 5.01346 12.3918C4.822 12.3678 4.64226 12.2866 4.49778 12.1587C4.43389 12.1025 4.35028 12.0739 4.26535 12.0793C4.18042 12.0847 4.10111 12.1237 4.04489 12.1876C3.98866 12.2515 3.96012 12.3351 3.96554 12.42C3.97095 12.5049 4.00989 12.5842 4.07378 12.6405C4.26157 12.8064 4.48557 12.926 4.72787 12.9899C4.97018 13.0538 5.22407 13.0601 5.46924 13.0083C5.71441 12.9565 5.94407 12.8481 6.13984 12.6917C6.33562 12.5352 6.49208 12.3352 6.59673 12.1075C6.70138 11.8798 6.7513 11.6308 6.74251 11.3804C6.73372 11.13 6.66645 10.8851 6.5461 10.6653C6.42575 10.4455 6.25564 10.2569 6.04938 10.1146C5.84312 9.97232 5.60642 9.88026 5.35822 9.84579C5.31638 9.83942 5.27368 9.84156 5.23268 9.85208C5.19168 9.8626 5.15323 9.88128 5.11962 9.907C5.08601 9.93273 5.05793 9.96497 5.03707 10.0018C5.01622 10.0386 5.003 10.0793 4.99822 10.1213C4.99273 10.1631 4.99552 10.2056 5.00644 10.2463C5.01736 10.287 5.03619 10.3252 5.06186 10.3586C5.08754 10.392 5.11954 10.4201 5.15606 10.4412C5.19257 10.4622 5.23287 10.4759 5.27467 10.4813C5.47908 10.5089 5.66929 10.6012 5.81737 10.7448C5.96545 10.8883 6.0636 11.0756 6.09741 11.2791C6.13122 11.4825 6.09891 11.6915 6.00523 11.8752C5.91154 12.059 5.76142 12.2079 5.57689 12.3L5.57067 12.2929Z" fill="#5F69A4"></path>
        <path d="M7.71022 0.510654C5.71983 0.5087 3.80581 1.27663 2.36872 2.65375C0.93163 4.03086 0.0828482 5.91043 2.12083e-06 7.8991C-0.00183675 7.94275 0.00525634 7.98631 0.0208467 8.02712C0.0364371 8.06793 0.0601964 8.10513 0.0906688 8.13643C0.136891 8.18088 0.194669 8.20932 0.256891 8.21999C0.475558 8.2911 2.18489 9.02888 3.18134 9.50532C3.23574 9.52869 3.29545 9.53689 3.35413 9.52907C3.41282 9.52124 3.46829 9.49768 3.51467 9.46088C3.76492 9.24268 4.05664 9.07723 4.37234 8.97444C4.68805 8.87165 5.02125 8.83363 5.352 8.86265C5.40655 8.86876 5.46175 8.86077 5.51233 8.83945C5.56291 8.81813 5.60717 8.78419 5.64089 8.74088L6.99645 6.96754C7.04562 6.90342 7.06879 6.82311 7.06134 6.74265V6.60043C7.06544 6.03811 7.23347 5.4892 7.54484 5.02093C7.85621 4.55267 8.2974 4.1854 8.81437 3.9641C9.33133 3.7428 9.90161 3.6771 10.4554 3.77503C11.0091 3.87297 11.5223 4.13029 11.932 4.51548C12.3417 4.90066 12.6301 5.39698 12.762 5.94364C12.8939 6.49029 12.8634 7.06354 12.6744 7.59316C12.4854 8.12278 12.146 8.58576 11.6978 8.9254C11.2496 9.26503 10.7121 9.46657 10.1511 9.50532C10.0854 9.51008 10.0227 9.5349 9.97156 9.57643L7.81867 11.3427C7.78448 11.3711 7.75656 11.4063 7.73667 11.4461C7.71679 11.4859 7.70536 11.5293 7.70311 11.5738C7.66701 12.2293 7.38137 12.8461 6.90483 13.2977C6.42828 13.7493 5.79697 14.0014 5.14045 14.0022C4.57853 14.0068 4.03106 13.8242 3.58431 13.4834C3.13755 13.1425 2.81691 12.6627 2.67289 12.1195C2.66113 12.0756 2.64015 12.0346 2.61134 11.9993C2.58253 11.9641 2.54654 11.9354 2.50578 11.9151L1.28534 11.3169C1.22451 11.2855 1.15523 11.2743 1.08761 11.2851C1.02 11.2958 0.957607 11.328 0.909545 11.3767C0.861483 11.4255 0.830275 11.4883 0.820482 11.5561C0.810689 11.6238 0.822824 11.693 0.855113 11.7533C1.4823 12.9701 2.42214 13.998 3.57808 14.7314C4.73401 15.4648 6.06436 15.8771 7.43242 15.9262C8.80049 15.9752 10.1569 15.6591 11.3624 15.0103C12.5679 14.3616 13.5789 13.4036 14.2915 12.2348C15.0042 11.066 15.3928 9.72852 15.4175 8.3598C15.4422 6.99108 15.102 5.64047 14.4319 4.44675C13.7618 3.25302 12.786 2.25923 11.6047 1.56747C10.4233 0.875721 9.07917 0.510955 7.71022 0.510654V0.510654Z" fill="#5F69A4"></path>
    </g>
    <defs>
        <clipPath id="clip0_1306_4109">
            <rect width="16" height="16" fill="white" transform="translate(0 0.5)"></rect>
        </clipPath>
    </defs>
</svg>