<svg width="16" height="17" viewBox="0 0 16 17" fill="none" xmlns="http://www.w3.org/2000/svg">
    <path d="M7.50132 0.5C2.36391 0.5 0.146414 4.92119 0.146414 4.92119L0.799153 5.37299C0.799153 5.37299 -0.0222678 6.88327 0.000463217 8.82041C0.000463217 12.7749 3.25629 16.5 8.04912 16.5C12.4032 16.5 16 13.0735 16 8.83014C16 3.29577 11.5611 0.5 7.50134 0.5H7.50132ZM7.54589 1.84909C11.5597 1.84909 14.6744 4.97634 14.6744 8.6119C14.6744 12.4658 11.6764 15.146 8.18283 15.146C5.61166 15.146 3.29223 13.253 3.29223 10.6574C3.29223 9.15831 4.11636 8.11315 5.03986 7.55613L5.17501 7.69792C4.92228 7.88911 4.20165 9.00831 4.20165 10.1083C4.20165 12.1505 5.858 13.5648 7.94488 13.5648C10.6032 13.5648 12.3761 11.3727 12.3761 8.82738C12.3761 5.86595 9.67239 3.35178 6.41868 3.35178C4.61903 3.35178 3.0916 4.10006 2.21392 4.76065L2.07733 4.64111C3.22558 2.92936 5.21406 1.84909 7.54589 1.84909ZM6.34822 4.68211C8.42457 4.68211 10.4517 6.01018 10.9577 7.8953L10.7737 7.96272C9.86517 6.80276 8.37647 5.84145 6.61851 5.84145C3.3837 5.84145 1.68487 8.68343 1.93426 11.0571L1.74377 11.1245C1.74377 11.1245 1.38648 10.3623 1.38648 9.45847C1.38648 6.84114 3.6096 4.68211 6.34822 4.68211ZM7.72058 7.96688C8.7036 7.96688 9.48977 8.73723 9.48977 9.6517C9.48977 10.4084 8.98725 10.8569 8.98725 10.8569L9.58248 11.2593C9.58248 11.2593 8.99225 12.1553 7.78743 12.1553C6.63496 12.1553 5.61569 11.2559 5.61569 10.0465C5.61569 8.80028 6.72437 7.96688 7.72058 7.96688Z" fill="#FF6050"></path>
</svg>
