<svg width="24" height="24" viewBox="0 0 24 24" fill="none" xmlns="http://www.w3.org/2000/svg">
<path d="M23.0015 21.9266C23.0015 22.5305 22.5099 23.0222 21.9059 23.0222H2.18564C1.58171 23.0222 1.09009 22.5305 1.09009 21.9266V2.20639C1.09009 1.60246 1.58171 1.11084 2.18564 1.11084H21.9059C22.5099 1.11084 23.0015 1.60246 23.0015 2.20639V21.9266Z" fill="#5BC014"/>
<path d="M9.85464 9.32718V6.04047C9.85464 5.73768 9.60963 5.49268 9.30684 5.49268H6.02013C5.71734 5.49268 5.47232 5.73768 5.47232 6.04047V9.32718C5.47232 9.62997 5.71734 9.87499 6.02013 9.87499H9.30684C9.60963 9.87499 9.85464 9.62997 9.85464 9.32718Z" fill="#1D2031"/>
<path d="M18.0715 5.49268H14.7848C14.482 5.49268 14.237 5.73769 14.237 6.04048V9.32719C14.237 9.62998 14.482 9.875 14.7848 9.875H18.0715C18.3743 9.875 18.6193 9.62998 18.6193 9.32719V6.04048C18.6193 5.73769 18.3743 5.49268 18.0715 5.49268Z" fill="#1D2031"/>
<path d="M16.9758 12.0662H14.2369V10.4228C14.2369 10.12 13.9918 9.875 13.6891 9.875H10.4024C10.0996 9.875 9.85457 10.12 9.85457 10.4228V12.0662H7.11566C6.81287 12.0662 6.56786 12.3112 6.56786 12.614V18.0918C6.56786 18.3946 6.81287 18.6396 7.11566 18.6396H9.30682C9.6096 18.6396 9.85462 18.3946 9.85462 18.0918V16.4484H14.2369V18.0918C14.2369 18.3946 14.4819 18.6396 14.7847 18.6396H16.9758C17.2786 18.6396 17.5236 18.3946 17.5236 18.0918V12.6139C17.5235 12.3112 17.2786 12.0662 16.9758 12.0662Z" fill="#1D2031"/>
</svg>
