<svg width="16" height="17" viewBox="0 0 16 17" fill="none" xmlns="http://www.w3.org/2000/svg">
    <path d="M7.584 0.31237C7.69179 0.262786 7.85095 0.299619 7.888 0.403744C7.92842 0.488744 7.85937 0.568078 7.80295 0.633953C7.40419 1.11129 7.13353 1.65581 7.00968 2.22983C6.9339 2.25674 6.912 2.32404 6.93558 2.38637C6.97263 2.3977 7.01137 2.40762 7.04926 2.41754C7.82737 2.36087 8.61558 2.37291 9.38189 2.50962C10.7815 2.74778 12.067 3.32661 13.0787 4.1742C14.0817 5.01171 14.7711 6.07795 15.0619 7.24129C15.3738 8.50178 15.2022 9.81301 14.5718 10.9862C13.217 13.3838 11.0037 15.3644 8.24253 16.6501C8.15411 16.6848 8.02611 16.6862 7.96463 16.6125C7.8939 16.5353 7.92253 16.4255 7.99411 16.3554C8.36463 15.9233 8.624 15.4275 8.76463 14.909C8.79158 14.802 8.82863 14.693 8.81768 14.5825C8.77221 14.5329 8.69726 14.5477 8.63326 14.5499C7.29035 14.6623 5.93655 14.4619 4.72 13.9705C3.42381 13.4456 2.34097 12.6102 1.60758 11.5692C0.933149 10.6143 0.587109 9.52062 0.608 8.41004C0.612211 7.39712 0.943158 6.39341 1.52589 5.50658C2.88253 3.33199 5.01221 1.49741 7.584 0.31237V0.31237ZM7.50905 6.12283C7.11316 6.16993 6.73335 6.28614 6.394 6.46399C6.05466 6.64185 5.76326 6.87741 5.53853 7.15558C5.23789 7.53666 5.05516 7.98858 5.05853 8.44687C5.051 8.75473 5.11595 9.06079 5.24964 9.34745C5.38332 9.6341 5.5831 9.89568 5.83747 10.1171C6.18106 10.4199 6.61259 10.6421 7.08947 10.7618C7.56635 10.8814 8.07208 10.8944 8.55674 10.7994C9.0414 10.7045 9.48824 10.5048 9.85313 10.2202C10.218 9.93556 10.4884 9.57581 10.6375 9.17645C11.0004 8.24429 10.5659 7.15274 9.62021 6.57687C9.01522 6.19724 8.25642 6.03405 7.50905 6.12283V6.12283Z" fill="#FF6536"></path>
</svg>