<svg width="19" height="24" viewBox="0 0 19 24" fill="none" xmlns="http://www.w3.org/2000/svg">
<path d="M16.1182 5.46166L14.5325 3.86932L12.8301 2.20459H5.87055L4.21194 3.86932L2.62653 5.46166H7.70038V19.8434L9.37239 21.4784L11.0444 19.8434V5.46166L9.37239 3.86932L11.0447 5.46166H16.1182Z" fill="#5F69A4"/>
<path d="M14.4705 7.02295H12.8756V13.0188L11.2092 14.5417L12.3826 15.5954L13.5677 16.6599L16.1179 14.3276L16.1182 7.02295H14.4705ZM5.86984 13.0188V7.02295H2.62653V14.3276L5.17769 16.6599L6.36283 15.5954L7.53525 14.5417L5.86984 13.0188Z" fill="#5F69A4"/>
<path d="M5.66361 1.13415L1.57937 5.11231V14.7557L9.37289 22.2089L17.1661 14.7557V5.11262L13.0822 1.13415H5.66361ZM0.829773 4.63261L5.17363 0.403363L5.3023 0.277344H13.4425L13.5712 0.403363L17.9154 4.63261L18.0457 4.7599V15.1119L17.9137 15.2379L9.67994 23.1122L9.37257 23.406L9.06487 23.1122L0.831399 15.2379L0.699158 15.1119V4.7599L0.829773 4.63261Z" fill="#5F69A4"/>
</svg>
