<svg width="16" height="17" viewBox="0 0 16 17" fill="none" xmlns="http://www.w3.org/2000/svg">
    <g clip-path="url(#clip0_1306_4169)">
        <path d="M2.37999 2.80667V2.808C1.62515 3.55102 1.02592 4.43699 0.617278 5.41417C0.208642 6.39135 -0.00120518 7.44015 -7.41675e-06 8.49933C-0.00246398 10.2505 0.572293 11.9537 1.63533 13.3453C1.64599 13.3587 1.66333 13.366 1.67799 13.3587C1.69266 13.35 1.69333 13.332 1.68733 13.3173C1.07733 11.4313 4.19466 6.86133 5.80599 4.94533C5.81066 4.93867 5.81733 4.93067 5.81733 4.92133C5.81733 4.91067 5.80999 4.902 5.80266 4.89533C3.09333 2.19867 2.36933 2.81533 2.37999 2.80733V2.80667ZM13.6133 2.8L13.6213 2.80667V2.808C14.376 3.55109 14.975 4.4371 15.3834 5.41428C15.7918 6.39147 16.0014 7.44024 16 8.49933C16.0024 10.2505 15.4277 11.9537 14.3647 13.3453C14.3547 13.3587 14.3373 13.366 14.322 13.3587C14.3087 13.35 14.3073 13.332 14.3127 13.3173C14.9227 11.4313 11.8073 6.85733 10.1973 4.94067C10.192 4.934 10.186 4.92667 10.186 4.918C10.186 4.90667 10.1927 4.898 10.2007 4.89133C12.9113 2.19467 13.6293 2.81533 13.6207 2.80733L13.614 2.80067L13.6133 2.8ZM7.99999 0.5C9.61466 0.5 10.9427 0.942667 12.1673 1.67067C12.1827 1.67867 12.1873 1.69533 12.1807 1.71067C12.1753 1.724 12.158 1.728 12.142 1.724C10.594 1.38933 8.23933 2.72733 8.01733 2.86067C8.01199 2.864 8.00733 2.86733 8.00066 2.86733C7.99266 2.86733 7.98733 2.864 7.98266 2.86067C7.39199 2.522 5.21599 1.38133 3.84599 1.732C3.83066 1.73533 3.81399 1.73333 3.80733 1.718C3.80432 1.71085 3.80402 1.70285 3.80647 1.69549C3.80893 1.68814 3.81397 1.68192 3.82066 1.678C5.04533 0.943333 6.39066 0.5 7.99999 0.5ZM7.99999 6.916C8.00933 6.916 8.01999 6.92333 8.02599 6.92867C10.4193 8.74867 14.5173 13.2487 13.266 14.5207L13.268 14.5193L13.2667 14.5207H13.2653C11.8091 15.7989 9.93696 16.5026 7.99933 16.5C6.06154 16.5023 4.18928 15.7987 2.73266 14.5207C1.48466 13.248 5.58133 8.74867 7.97266 6.92867C7.97933 6.92333 7.99066 6.91533 8.00066 6.91533L7.99999 6.916Z" fill="#35C936"></path>
    </g>
    <defs>
        <clipPath id="clip0_1306_4169">
            <rect width="16" height="16" fill="white" transform="translate(0 0.5)"></rect>
        </clipPath>
    </defs>
</svg>