<svg width="60" height="60" viewBox="0 0 28 28" fill="none" xmlns="http://www.w3.org/2000/svg">
<path d="M7.50377 11.1126C6.65412 10.8699 6.71476 10.8699 6.83603 10.0813C6.89686 9.59609 6.9574 9.17148 6.9574 8.68617C6.9574 8.32236 7.07887 8.20085 7.44294 8.20085C8.11044 8.20085 8.04985 8.20085 7.98912 7.53366C7.86775 6.50251 8.04985 5.53188 8.65657 4.68262C9.02079 4.1973 9.44564 3.95477 10.0524 3.89411C10.1736 3.89411 10.2951 3.89411 10.4165 3.95481C10.5378 3.95481 10.6592 4.01538 10.7805 4.07608C10.7805 3.95481 10.8413 3.77264 10.7805 3.65147C10.4165 2.4384 11.2053 1.10377 12.4798 0.982554C12.9046 0.921846 13.3294 1.22514 13.6934 1.34645C14.4216 1.52838 14.4823 2.19567 14.543 2.8023C14.6038 3.16611 14.6038 3.59072 14.0576 3.77269C13.9362 3.8334 13.8756 4.1973 13.8149 4.43993C14.543 4.62186 14.543 4.31872 15.2105 4.07608C15.8781 4.1973 15.7567 4.37947 16.1815 4.37947H20.733C20.9757 4.37947 21.1578 4.50074 21.4004 4.5613C21.4004 4.31872 21.7646 4.50074 21.9466 4.98596C22.4927 4.92535 23.039 4.92535 23.5245 4.86469C23.7673 4.86469 24.0707 4.86469 24.3134 4.92549C24.3741 4.92549 24.4348 5.04666 24.4348 5.04666C24.4348 5.10737 24.3134 5.22864 24.3134 5.22864H23.5245C22.9784 5.22864 22.4322 5.16793 21.9466 5.22864C21.0969 5.34996 20.2475 5.53203 19.3978 5.53203C18.5481 5.47132 17.9414 6.32059 18.1234 7.10915C18.1841 7.29117 18.2447 7.4732 18.3054 7.65507C17.8199 7.77639 17.7592 8.14039 17.6987 8.50434C17.6379 9.17163 17.0918 9.53548 16.6062 9.77821C16.3027 9.89943 15.878 9.77821 15.5139 9.6569C14.9678 9.47492 14.4822 9.17168 13.9359 8.92905C13.8146 9.23234 13.6326 9.53553 14.118 9.71756C14.2393 9.77826 14.3001 9.96014 14.3001 10.0815C14.2393 10.9914 14.1787 11.8406 14.0574 12.7504C13.9965 13.0538 13.8146 13.2357 13.4504 13.0538C13.3896 13.0538 13.1469 13.175 13.1469 13.2357C13.2077 13.539 13.2077 13.9029 13.3896 14.1456C14.2393 15.1162 14.7855 16.2686 15.2103 17.4213C15.3316 17.7245 15.5745 18.0278 15.6958 18.3917C15.9994 19.3016 15.7566 20.1508 15.6958 21.0607C15.6351 21.4246 15.6958 21.7885 15.6958 22.2131C15.6958 22.4558 15.6958 22.6985 15.6351 22.9411C15.5745 23.2444 15.5138 23.5477 15.4531 23.851C15.4531 24.8215 15.9387 25.5494 16.849 25.9134C17.0309 25.9741 17.1523 26.0346 17.2738 26.156C17.3951 26.2773 17.4557 26.4594 17.3951 26.5806C17.3951 26.6413 17.1522 26.7627 17.0915 26.7627L14.9067 26.5806H13.9964C13.6324 26.5806 13.4503 26.4594 13.5716 26.0348C13.6929 25.3068 14.0572 24.5791 13.8752 23.7905C13.8144 23.4266 13.6931 23.0625 13.6325 22.6987C13.5111 22.0315 13.3896 21.4248 13.3896 20.7576C13.3896 20.3936 13.5717 20.0903 13.6325 19.7264C13.7537 19.241 13.5717 19.1198 13.0863 18.9984C12.9043 18.9984 12.6614 18.8165 12.4795 18.6345C12.1153 18.1492 11.812 17.664 11.4477 17.118C11.3871 17.0573 11.3265 16.8754 11.2658 16.8754C10.7802 16.936 10.5982 16.5114 10.3554 16.0868C9.99133 16.8754 9.62711 17.5426 9.32383 18.2098C9.26309 18.3918 9.26309 18.6344 9.14172 18.8164C9.08099 18.9983 8.95966 19.241 8.83829 19.4229C8.53466 19.9084 8.23138 20.333 7.9278 20.7576C7.9278 20.8182 7.86721 20.8182 7.86721 20.8788C8.04927 21.91 7.32113 22.6986 7.01755 23.5478C6.95682 23.8511 6.53202 24.033 6.41064 24.3362C6.10716 25.0036 5.98584 25.6709 6.28942 26.3987C6.47143 26.8233 6.35015 27.0051 5.86461 27.0051H4.83299C4.46878 27.0051 4.28672 26.7626 4.34745 26.3987C4.46868 25.7315 4.65093 25.0642 4.77226 24.397C4.83299 24.0935 4.77226 23.7298 4.83299 23.3657C4.89363 23.0018 4.95422 22.6986 5.01491 22.3346C5.13618 21.9706 5.19701 21.6067 5.37902 21.2426C5.56098 20.818 5.74309 20.3934 5.98579 19.9689C6.1679 19.6655 6.35 19.4229 6.47142 19.1197C6.53206 18.9983 6.5927 18.8162 6.5927 18.6343L6.77481 16.2686C6.77481 16.0866 6.71407 15.844 6.71407 15.6619C6.71407 15.2373 6.65334 14.8127 6.65334 14.3881C6.65334 14.2669 6.71407 14.0849 6.77471 14.0849C7.19952 13.9635 7.01741 13.6602 7.01741 13.4783C6.95667 12.993 6.89618 12.5684 6.83535 12.0831C7.01814 11.7191 6.95755 11.2945 7.50377 11.1126ZM16.3639 7.29107C16.6066 6.86647 16.91 6.56308 17.0922 6.19922C17.1527 6.07795 17.0922 5.83522 16.9709 5.77461C16.9101 5.71381 16.6673 5.77461 16.5461 5.83522C16.3031 6.01725 16.1818 6.25983 15.9392 6.56308C16.0605 6.74515 16.1818 6.98773 16.3639 7.29107Z" fill="#E2AD00"/>
</svg>
