<svg width="40" height="45" viewBox="0 0 40 45" fill="none" xmlns="http://www.w3.org/2000/svg">
<path d="M16.077 45V41.617C12.1809 40.7412 8.62817 38.5868 5.72514 35.3164C2.08655 31.2177 0 25.7854 0 20.4106C0 14.9974 2.10714 9.80588 5.85786 5.97814C9.60859 2.1504 14.6957 0 20 0C25.3043 0 30.3914 2.1504 34.1421 5.97814C37.8929 9.80588 40 14.9974 40 20.4106C40 25.8855 37.8791 31.9934 34.3263 36.7527C30.3567 42.0699 25.2691 45.01 20 45.01L16.077 45Z" fill="white"/>
<path d="M18.0389 42.9983V39.928C13.9786 39.4276 10.1929 37.3533 7.17952 33.9728C3.8704 30.2574 2.01364 25.4312 1.96191 20.4107C1.96191 15.5284 3.86239 10.846 7.24527 7.39366C10.6281 3.94133 15.2163 2.00183 20.0004 2.00183C24.7845 2.00183 29.3727 3.94133 32.7556 7.39366C36.1384 10.846 38.0389 15.5284 38.0389 20.4107C38.0389 30.6423 29.9918 42.9983 20.0004 42.9983H18.0389Z" fill="#6162F2"/>
<path d="M19.9998 40.9964V38.0488C11.1216 38.0488 3.92285 29.4712 3.92285 20.4106C3.92285 16.0592 5.61667 11.886 8.63169 8.80906C11.6467 5.73214 15.736 4.00354 19.9998 4.00354C24.2637 4.00354 28.353 5.73214 31.368 8.80906C34.383 11.886 36.0768 16.0592 36.0768 20.4106C36.0768 29.4712 28.8781 40.9964 19.9998 40.9964Z" fill="#1A1B1E"/>
<path d="M25.1907 9.77869H14.8069C10.7919 9.77869 7.53711 13.0998 7.53711 17.1965C7.53711 21.2933 10.7919 24.6144 14.8069 24.6144H25.1907C29.2057 24.6144 32.4605 21.2933 32.4605 17.1965C32.4605 13.0998 29.2057 9.77869 25.1907 9.77869Z" fill="#6162F2"/>
<path d="M15.8467 28.8531H24.1537C24.1537 29.9773 23.7161 31.0555 22.9371 31.8504C22.1582 32.6453 21.1017 33.0919 20.0002 33.0919C18.8986 33.0919 17.8421 32.6453 17.0632 31.8504C16.2843 31.0555 15.8467 29.9773 15.8467 28.8531Z" fill="#6162F2"/>
<path d="M17.4332 16.1368H12.1837C11.9129 16.1368 11.6934 16.3609 11.6934 16.6373V17.7558C11.6934 18.0322 11.9129 18.2562 12.1837 18.2562H17.4332C17.704 18.2562 17.9236 18.0322 17.9236 17.7558V16.6373C17.9236 16.3609 17.704 16.1368 17.4332 16.1368Z" fill="white"/>
<path d="M15.3559 14.0175H14.2599C13.9891 14.0175 13.7695 14.2415 13.7695 14.5179V19.8752C13.7695 20.1516 13.9891 20.3756 14.2599 20.3756H15.3559C15.6267 20.3756 15.8463 20.1516 15.8463 19.8752V14.5179C15.8463 14.2415 15.6267 14.0175 15.3559 14.0175Z" fill="white"/>
<path d="M26.2301 19.3159C26.2301 18.7307 25.7652 18.2562 25.1917 18.2562C24.6182 18.2562 24.1533 18.7307 24.1533 19.3159C24.1533 19.9012 24.6182 20.3756 25.1917 20.3756C25.7652 20.3756 26.2301 19.9012 26.2301 19.3159Z" fill="white"/>
<path d="M26.2301 15.0771C26.2301 14.4919 25.7652 14.0175 25.1917 14.0175C24.6182 14.0175 24.1533 14.4919 24.1533 15.0771C24.1533 15.6624 24.6182 16.1368 25.1917 16.1368C25.7652 16.1368 26.2301 15.6624 26.2301 15.0771Z" fill="white"/>
<path d="M23.115 18.2562C23.6884 18.2562 24.1533 17.7818 24.1533 17.1965C24.1533 16.6113 23.6884 16.1368 23.115 16.1368C22.5415 16.1368 22.0766 16.6113 22.0766 17.1965C22.0766 17.7818 22.5415 18.2562 23.115 18.2562Z" fill="white"/>
<path d="M27.2683 18.2562C27.8417 18.2562 28.3066 17.7818 28.3066 17.1965C28.3066 16.6113 27.8417 16.1368 27.2683 16.1368C26.6948 16.1368 26.2299 16.6113 26.2299 17.1965C26.2299 17.7818 26.6948 18.2562 27.2683 18.2562Z" fill="white"/>
</svg>
