<svg width="184" height="61" viewBox="0 0 184 61" fill="none" xmlns="http://www.w3.org/2000/svg">
<g filter="url(#filter0_d_196_1949)">
<path d="M67.5615 16.8474H61.4443V14.4128H70.8926V16.8474L64.5029 24.5905H71.0771V27.0163H61.1719V24.5905L67.5615 16.8474ZM80.0859 21.7077L78.5566 17.5681L77.0186 21.7077H80.0859ZM80.9824 24.0456H76.1221L75.041 27.0163H72.1582L77.1152 14.4128H79.9893L84.9463 27.0163H82.0635L80.9824 24.0456ZM89.4551 14.4128V19.906L94.4033 14.4128H97.5498L92.874 19.6335L97.9102 27.0163H94.7637L91.0723 21.6198L89.4551 23.4128V27.0163H86.748V14.4128H89.4551ZM106.014 21.7077L104.484 17.5681L102.946 21.7077H106.014ZM106.91 24.0456H102.05L100.969 27.0163H98.0859L103.043 14.4128H105.917L110.874 27.0163H107.991L106.91 24.0456ZM118.169 20.6267V22.7888H111.691V20.6267H118.169ZM125.71 16.8474H119.593V14.4128H129.041V16.8474L122.651 24.5905H129.226V27.0163H119.32V24.5905L125.71 16.8474ZM138.234 21.7077L136.705 17.5681L135.167 21.7077H138.234ZM139.131 24.0456H134.271L133.189 27.0163H130.307L135.264 14.4128H138.138L143.095 27.0163H140.212L139.131 24.0456ZM147.604 14.4128V19.906L152.552 14.4128H155.698L151.022 19.6335L156.059 27.0163H152.912L149.221 21.6198L147.604 23.4128V27.0163H144.896V14.4128H147.604ZM164.162 21.7077L162.633 17.5681L161.095 21.7077H164.162ZM165.059 24.0456H160.198L159.117 27.0163H156.234L161.191 14.4128H164.065L169.022 27.0163H166.14L165.059 24.0456ZM176.317 23.3249C176.317 22.903 176.104 22.5632 175.676 22.3054C175.254 22.0476 174.735 21.8337 174.12 21.6638C173.511 21.488 172.901 21.2829 172.292 21.0486C171.688 20.8142 171.173 20.4275 170.745 19.8884C170.317 19.3493 170.104 18.6667 170.104 17.8405C170.104 16.821 170.511 15.9509 171.325 15.2302C172.146 14.5095 173.209 14.1491 174.516 14.1491C175.031 14.1491 175.529 14.2107 176.01 14.3337C176.49 14.4509 176.883 14.5915 177.188 14.7556C177.498 14.9138 177.768 15.0779 177.996 15.2478C178.23 15.4118 178.397 15.5554 178.497 15.6784L178.655 15.8542L177.038 17.5681C176.968 17.4861 176.868 17.3864 176.739 17.2693C176.616 17.1462 176.353 16.9851 175.948 16.7859C175.544 16.5866 175.128 16.487 174.7 16.487C174.185 16.487 173.769 16.6189 173.452 16.8825C173.142 17.1462 172.986 17.4655 172.986 17.8405C172.986 18.2624 173.197 18.6023 173.619 18.8601C174.047 19.112 174.562 19.3259 175.166 19.5017C175.775 19.6775 176.385 19.8825 176.994 20.1169C177.609 20.3513 178.131 20.738 178.559 21.2771C178.986 21.8161 179.2 22.4987 179.2 23.3249C179.2 24.4909 178.775 25.4431 177.926 26.1814C177.082 26.9196 175.916 27.2888 174.428 27.2888C173.842 27.2888 173.273 27.2155 172.723 27.0691C172.178 26.9284 171.727 26.7585 171.369 26.5593C171.018 26.3601 170.707 26.1579 170.438 25.9529C170.168 25.7478 169.975 25.5749 169.857 25.4343L169.655 25.2146L171.281 23.5974C171.363 23.6911 171.478 23.8142 171.624 23.9665C171.776 24.113 172.11 24.3122 172.626 24.5642C173.142 24.8161 173.681 24.9421 174.243 24.9421C174.894 24.9421 175.4 24.7898 175.764 24.4851C176.133 24.1804 176.317 23.7937 176.317 23.3249Z" fill="white"/>
<path d="M64.626 37.4971L66.8057 34.7505H68.001V41.0522H66.6519V36.8511L64.626 39.4307L62.6045 36.8687V41.0522H61.251V34.7505H62.4683L64.626 37.4971ZM71.7803 41.0522V40.604C71.7451 40.645 71.6953 40.6963 71.6309 40.7578C71.5693 40.8164 71.4331 40.8955 71.2222 40.9951C71.0112 41.0918 70.7915 41.1401 70.563 41.1401C70.1235 41.1401 69.7661 41.0186 69.4907 40.7754C69.2153 40.5293 69.0776 40.2319 69.0776 39.8833C69.0776 39.5229 69.1934 39.2227 69.4248 38.9824C69.6562 38.7422 69.9756 38.5854 70.3828 38.5122L71.7803 38.2617C71.7803 38.0771 71.7129 37.9263 71.5781 37.8091C71.4434 37.6919 71.2559 37.6333 71.0156 37.6333C70.8164 37.6333 70.6348 37.6714 70.4707 37.7476C70.3066 37.8208 70.1909 37.897 70.1235 37.9761L70.0225 38.0815L69.3501 37.4092C69.3677 37.3857 69.3911 37.355 69.4204 37.3169C69.4526 37.2759 69.5215 37.207 69.627 37.1104C69.7354 37.0137 69.8525 36.9287 69.9785 36.8555C70.1045 36.7793 70.27 36.7104 70.4751 36.6489C70.6802 36.5845 70.8896 36.5522 71.1035 36.5522C71.6602 36.5522 72.1143 36.7192 72.4658 37.0532C72.8174 37.3843 72.9932 37.8018 72.9932 38.3057V41.0522H71.7803ZM70.8794 40.1514C71.1548 40.1514 71.373 40.0649 71.5342 39.8921C71.6982 39.7163 71.7803 39.4731 71.7803 39.1626V39.0264L70.7915 39.2065C70.4604 39.2593 70.2949 39.4248 70.2949 39.7031C70.2949 40.002 70.4897 40.1514 70.8794 40.1514ZM77.3613 36.6401V37.7651H75.3794V41.0522H74.1665V36.6401H77.3613ZM80.4639 41.0522V40.604C80.4287 40.645 80.3789 40.6963 80.3145 40.7578C80.2529 40.8164 80.1167 40.8955 79.9058 40.9951C79.6948 41.0918 79.4751 41.1401 79.2466 41.1401C78.8071 41.1401 78.4497 41.0186 78.1743 40.7754C77.8989 40.5293 77.7612 40.2319 77.7612 39.8833C77.7612 39.5229 77.877 39.2227 78.1084 38.9824C78.3398 38.7422 78.6592 38.5854 79.0664 38.5122L80.4639 38.2617C80.4639 38.0771 80.3965 37.9263 80.2617 37.8091C80.127 37.6919 79.9395 37.6333 79.6992 37.6333C79.5 37.6333 79.3184 37.6714 79.1543 37.7476C78.9902 37.8208 78.8745 37.897 78.8071 37.9761L78.7061 38.0815L78.0337 37.4092C78.0513 37.3857 78.0747 37.355 78.104 37.3169C78.1362 37.2759 78.2051 37.207 78.3105 37.1104C78.4189 37.0137 78.5361 36.9287 78.6621 36.8555C78.7881 36.7793 78.9536 36.7104 79.1587 36.6489C79.3638 36.5845 79.5732 36.5522 79.7871 36.5522C80.3438 36.5522 80.7979 36.7192 81.1494 37.0532C81.501 37.3843 81.6768 37.8018 81.6768 38.3057V41.0522H80.4639ZM79.563 40.1514C79.8384 40.1514 80.0566 40.0649 80.2178 39.8921C80.3818 39.7163 80.4639 39.4731 80.4639 39.1626V39.0264L79.4751 39.2065C79.144 39.2593 78.9785 39.4248 78.9785 39.7031C78.9785 40.002 79.1733 40.1514 79.563 40.1514ZM85.9526 37.8574C85.9526 37.9893 85.9292 38.1108 85.8823 38.2222C85.8354 38.3335 85.7754 38.4214 85.7021 38.4858C85.6318 38.5474 85.5601 38.6016 85.4868 38.6484C85.4136 38.6924 85.3535 38.7202 85.3066 38.7319L85.2363 38.7583C85.2598 38.7642 85.292 38.7744 85.333 38.7891C85.374 38.8037 85.4458 38.8389 85.5483 38.8945C85.6509 38.9473 85.7402 39.0117 85.8164 39.0879C85.8955 39.1611 85.9673 39.2637 86.0317 39.3955C86.0991 39.5273 86.1328 39.6753 86.1328 39.8394C86.1328 40.1997 85.9673 40.5073 85.6362 40.7622C85.3081 41.0142 84.8438 41.1401 84.2432 41.1401C84.0088 41.1401 83.7847 41.1123 83.5708 41.0566C83.3599 41.001 83.1855 40.9336 83.0479 40.8545C82.9102 40.7754 82.79 40.6978 82.6875 40.6216C82.585 40.5425 82.5132 40.4766 82.4722 40.4238L82.3975 40.3315L83.0742 39.6592C83.0977 39.6943 83.1357 39.7397 83.1885 39.7954C83.2441 39.8481 83.3613 39.9214 83.54 40.0151C83.7217 40.106 83.9121 40.1514 84.1113 40.1514C84.3457 40.1514 84.5229 40.106 84.6431 40.0151C84.7661 39.9214 84.8276 39.8027 84.8276 39.6592C84.8276 39.3604 84.5889 39.2095 84.1113 39.2065H83.6587V38.3979H84.1113C84.3047 38.3979 84.4497 38.3613 84.5464 38.2881C84.646 38.2119 84.6958 38.1138 84.6958 37.9937C84.6958 37.6948 84.501 37.5439 84.1113 37.541C83.9678 37.541 83.8198 37.5747 83.6675 37.6421C83.5181 37.7065 83.4038 37.7754 83.3247 37.8486L83.2104 37.9453L82.5337 37.2729C82.5454 37.2554 82.5659 37.2305 82.5952 37.1982C82.6274 37.1631 82.6948 37.1045 82.7974 37.0225C82.9028 36.9375 83.0156 36.8643 83.1357 36.8027C83.2559 36.7383 83.417 36.6812 83.6191 36.6313C83.8213 36.5786 84.0293 36.5522 84.2432 36.5522C84.7588 36.5522 85.1719 36.6812 85.4824 36.939C85.7959 37.1968 85.9526 37.5029 85.9526 37.8574ZM90.1582 36.6401H91.2173V41.0522H90.0044V38.5781L88.084 41.0522H87.0337V36.6401H88.2466V39.1187L90.1582 36.6401ZM93.5991 39.3867V41.0522H92.3862V36.6401H93.5991V38.3057H95.3086V36.6401H96.5259V41.0522H95.3086V39.3867H93.5991ZM99.5405 41.0522V36.6401H100.753V39.9712H102.331V36.6401H103.544V39.9712H104.128V42.0894H102.916V41.0522H99.5405ZM108.062 36.6401H109.121V41.0522H107.908V38.5781L105.987 41.0522H104.937V36.6401H106.15V39.1187L108.062 36.6401ZM112.496 40.1074V37.6772C112.094 37.7007 111.784 37.8193 111.564 38.0332C111.344 38.2471 111.234 38.5342 111.234 38.8945C111.234 39.252 111.344 39.5376 111.564 39.7515C111.784 39.9653 112.094 40.084 112.496 40.1074ZM113.708 41.1885V42.9419H112.496V41.1885C111.787 41.165 111.196 40.9307 110.725 40.4854C110.253 40.04 110.017 39.5098 110.017 38.8945C110.017 38.2764 110.253 37.7446 110.725 37.2993C111.196 36.854 111.787 36.6196 112.496 36.5962V34.7505H113.708V36.5962C114.417 36.6196 115.006 36.854 115.475 37.2993C115.947 37.7446 116.183 38.2764 116.183 38.8945C116.183 39.5098 115.947 40.04 115.475 40.4854C115.006 40.9307 114.417 41.165 113.708 41.1885ZM113.708 37.6772V40.1074C114.11 40.084 114.42 39.9653 114.64 39.7515C114.86 39.5376 114.97 39.252 114.97 38.8945C114.97 38.5342 114.86 38.2471 114.64 38.0332C114.42 37.8193 114.11 37.7007 113.708 37.6772ZM119.602 41.1401C119.35 41.1401 119.114 41.0889 118.894 40.9863C118.677 40.8809 118.523 40.7769 118.433 40.6743L118.296 40.5117V42.9419H117.083V36.6401H118.296V37.1807C118.308 37.1631 118.326 37.1411 118.349 37.1147C118.375 37.0884 118.428 37.04 118.507 36.9697C118.589 36.8965 118.677 36.832 118.771 36.7764C118.865 36.7178 118.986 36.6665 119.136 36.6226C119.285 36.5757 119.44 36.5522 119.602 36.5522C120.173 36.5522 120.668 36.7749 121.087 37.2202C121.509 37.6626 121.72 38.2046 121.72 38.8462C121.72 39.4878 121.509 40.0312 121.087 40.4766C120.668 40.9189 120.173 41.1401 119.602 41.1401ZM120.142 37.9761C119.934 37.7476 119.679 37.6333 119.377 37.6333C119.079 37.6333 118.824 37.7476 118.613 37.9761C118.402 38.2017 118.296 38.4917 118.296 38.8462C118.296 39.2007 118.402 39.4922 118.613 39.7207C118.824 39.9492 119.079 40.0635 119.377 40.0635C119.679 40.0635 119.934 39.9492 120.142 39.7207C120.353 39.4922 120.458 39.2007 120.458 38.8462C120.458 38.4917 120.353 38.2017 120.142 37.9761ZM123.93 38.0156C123.716 38.2412 123.609 38.5195 123.609 38.8506C123.609 39.1787 123.716 39.4556 123.93 39.6812C124.144 39.9038 124.397 40.0151 124.69 40.0151C124.983 40.0151 125.237 39.9038 125.451 39.6812C125.665 39.4556 125.771 39.1787 125.771 38.8506C125.771 38.5195 125.665 38.2412 125.451 38.0156C125.237 37.79 124.983 37.6772 124.69 37.6772C124.397 37.6772 124.144 37.79 123.93 38.0156ZM126.33 37.2422C126.795 37.6992 127.028 38.2339 127.028 38.8462C127.028 39.4585 126.795 39.9946 126.33 40.4546C125.867 40.9116 125.32 41.1401 124.69 41.1401C124.061 41.1401 123.513 40.9116 123.047 40.4546C122.581 39.9946 122.348 39.4585 122.348 38.8462C122.348 38.2339 122.581 37.6992 123.047 37.2422C123.513 36.7822 124.061 36.5522 124.69 36.5522C125.32 36.5522 125.867 36.7822 126.33 37.2422ZM127.929 36.6401H130.135C130.575 36.6401 130.932 36.7603 131.208 37.0005C131.483 37.2407 131.621 37.5264 131.621 37.8574C131.621 38.0566 131.575 38.231 131.484 38.3804C131.394 38.5298 131.303 38.6279 131.212 38.6748L131.08 38.7583C131.098 38.7642 131.123 38.7729 131.155 38.7847C131.187 38.7964 131.246 38.8301 131.331 38.8857C131.416 38.9385 131.489 39 131.55 39.0703C131.615 39.1377 131.672 39.2314 131.722 39.3516C131.774 39.4717 131.801 39.6035 131.801 39.7471C131.801 40.1191 131.657 40.4297 131.37 40.6787C131.086 40.9277 130.704 41.0522 130.223 41.0522H127.929V36.6401ZM130.135 39.1626H129.142V40.0635H130.135C130.273 40.0635 130.381 40.021 130.46 39.936C130.542 39.8511 130.583 39.7427 130.583 39.6108C130.583 39.479 130.542 39.3721 130.46 39.29C130.381 39.2051 130.273 39.1626 130.135 39.1626ZM130.043 38.354C130.283 38.354 130.403 38.2339 130.403 37.9937C130.403 37.7534 130.283 37.6333 130.043 37.6333H129.142V38.354H130.043ZM138.146 36.6401V41.0522H136.929V36.6401H138.146ZM133.915 40.0635H134.635C134.791 40.0635 134.919 40.0122 135.022 39.9097C135.125 39.8071 135.176 39.6782 135.176 39.5229C135.176 39.3677 135.125 39.2388 135.022 39.1362C134.919 39.0337 134.791 38.9824 134.635 38.9824H133.915V40.0635ZM135.936 38.4155C136.241 38.6968 136.393 39.0659 136.393 39.5229C136.393 39.9771 136.241 40.3462 135.936 40.6304C135.634 40.9116 135.215 41.0522 134.679 41.0522H132.702V36.6401H133.915V37.9937H134.679C135.212 37.9937 135.631 38.1343 135.936 38.4155ZM141.029 39.6592L140.084 41.0522H138.779L140.265 38.8022L138.867 36.6401H140.221L141.029 37.9453L141.838 36.6401H143.191L141.794 38.8022L143.279 41.0522H141.974L141.029 39.6592ZM145.301 37.8135V36.6401H149.309V37.8135H147.911V41.0522H146.698V37.8135H145.301ZM151.334 38.0156C151.121 38.2412 151.014 38.5195 151.014 38.8506C151.014 39.1787 151.121 39.4556 151.334 39.6812C151.548 39.9038 151.802 40.0151 152.095 40.0151C152.388 40.0151 152.641 39.9038 152.855 39.6812C153.069 39.4556 153.176 39.1787 153.176 38.8506C153.176 38.5195 153.069 38.2412 152.855 38.0156C152.641 37.79 152.388 37.6772 152.095 37.6772C151.802 37.6772 151.548 37.79 151.334 38.0156ZM153.734 37.2422C154.2 37.6992 154.433 38.2339 154.433 38.8462C154.433 39.4585 154.2 39.9946 153.734 40.4546C153.271 40.9116 152.725 41.1401 152.095 41.1401C151.465 41.1401 150.917 40.9116 150.451 40.4546C149.985 39.9946 149.752 39.4585 149.752 38.8462C149.752 38.2339 149.985 37.6992 150.451 37.2422C150.917 36.7822 151.465 36.5522 152.095 36.5522C152.725 36.5522 153.271 36.7822 153.734 37.2422ZM155.333 36.6401H157.54C157.979 36.6401 158.336 36.7603 158.612 37.0005C158.887 37.2407 159.025 37.5264 159.025 37.8574C159.025 38.0566 158.979 38.231 158.889 38.3804C158.798 38.5298 158.707 38.6279 158.616 38.6748L158.484 38.7583C158.502 38.7642 158.527 38.7729 158.559 38.7847C158.591 38.7964 158.65 38.8301 158.735 38.8857C158.82 38.9385 158.893 39 158.955 39.0703C159.019 39.1377 159.076 39.2314 159.126 39.3516C159.179 39.4717 159.205 39.6035 159.205 39.7471C159.205 40.1191 159.062 40.4297 158.774 40.6787C158.49 40.9277 158.108 41.0522 157.627 41.0522H155.333V36.6401ZM157.54 39.1626H156.546V40.0635H157.54C157.677 40.0635 157.786 40.021 157.865 39.936C157.947 39.8511 157.988 39.7427 157.988 39.6108C157.988 39.479 157.947 39.3721 157.865 39.29C157.786 39.2051 157.677 39.1626 157.54 39.1626ZM157.447 38.354C157.688 38.354 157.808 38.2339 157.808 37.9937C157.808 37.7534 157.688 37.6333 157.447 37.6333H156.546V38.354H157.447ZM162.536 41.0522V40.604C162.501 40.645 162.451 40.6963 162.387 40.7578C162.325 40.8164 162.189 40.8955 161.978 40.9951C161.767 41.0918 161.547 41.1401 161.319 41.1401C160.879 41.1401 160.522 41.0186 160.247 40.7754C159.971 40.5293 159.833 40.2319 159.833 39.8833C159.833 39.5229 159.949 39.2227 160.181 38.9824C160.412 38.7422 160.731 38.5854 161.139 38.5122L162.536 38.2617C162.536 38.0771 162.469 37.9263 162.334 37.8091C162.199 37.6919 162.012 37.6333 161.771 37.6333C161.572 37.6333 161.391 37.6714 161.227 37.7476C161.062 37.8208 160.947 37.897 160.879 37.9761L160.778 38.0815L160.106 37.4092C160.124 37.3857 160.147 37.355 160.176 37.3169C160.208 37.2759 160.277 37.207 160.383 37.1104C160.491 37.0137 160.608 36.9287 160.734 36.8555C160.86 36.7793 161.026 36.7104 161.231 36.6489C161.436 36.5845 161.646 36.5522 161.859 36.5522C162.416 36.5522 162.87 36.7192 163.222 37.0532C163.573 37.3843 163.749 37.8018 163.749 38.3057V41.0522H162.536ZM161.635 40.1514C161.911 40.1514 162.129 40.0649 162.29 39.8921C162.454 39.7163 162.536 39.4731 162.536 39.1626V39.0264L161.547 39.2065C161.216 39.2593 161.051 39.4248 161.051 39.7031C161.051 40.002 161.246 40.1514 161.635 40.1514ZM167.44 41.1401C167.188 41.1401 166.953 41.0889 166.733 40.9863C166.516 40.8809 166.362 40.7769 166.271 40.6743L166.135 40.5117V42.9419H164.922V36.6401H166.135V37.1807C166.147 37.1631 166.165 37.1411 166.188 37.1147C166.214 37.0884 166.267 37.04 166.346 36.9697C166.428 36.8965 166.516 36.832 166.61 36.7764C166.704 36.7178 166.825 36.6665 166.975 36.6226C167.124 36.5757 167.279 36.5522 167.44 36.5522C168.012 36.5522 168.507 36.7749 168.926 37.2202C169.348 37.6626 169.559 38.2046 169.559 38.8462C169.559 39.4878 169.348 40.0312 168.926 40.4766C168.507 40.9189 168.012 41.1401 167.44 41.1401ZM167.981 37.9761C167.773 37.7476 167.518 37.6333 167.216 37.6333C166.917 37.6333 166.663 37.7476 166.452 37.9761C166.241 38.2017 166.135 38.4917 166.135 38.8462C166.135 39.2007 166.241 39.4922 166.452 39.7207C166.663 39.9492 166.917 40.0635 167.216 40.0635C167.518 40.0635 167.773 39.9492 167.981 39.7207C168.192 39.4922 168.297 39.2007 168.297 38.8462C168.297 38.4917 168.192 38.2017 167.981 37.9761ZM171.769 38.0156C171.555 38.2412 171.448 38.5195 171.448 38.8506C171.448 39.1787 171.555 39.4556 171.769 39.6812C171.983 39.9038 172.236 40.0151 172.529 40.0151C172.822 40.0151 173.076 39.9038 173.29 39.6812C173.503 39.4556 173.61 39.1787 173.61 38.8506C173.61 38.5195 173.503 38.2412 173.29 38.0156C173.076 37.79 172.822 37.6772 172.529 37.6772C172.236 37.6772 171.983 37.79 171.769 38.0156ZM174.168 37.2422C174.634 37.6992 174.867 38.2339 174.867 38.8462C174.867 39.4585 174.634 39.9946 174.168 40.4546C173.706 40.9116 173.159 41.1401 172.529 41.1401C171.899 41.1401 171.352 40.9116 170.886 40.4546C170.42 39.9946 170.187 39.4585 170.187 38.8462C170.187 38.2339 170.42 37.6992 170.886 37.2422C171.352 36.7822 171.899 36.5522 172.529 36.5522C173.159 36.5522 173.706 36.7822 174.168 37.2422ZM175.768 36.6401H177.974C178.414 36.6401 178.771 36.7603 179.046 37.0005C179.322 37.2407 179.459 37.5264 179.459 37.8574C179.459 38.0566 179.414 38.231 179.323 38.3804C179.232 38.5298 179.142 38.6279 179.051 38.6748L178.919 38.7583C178.937 38.7642 178.961 38.7729 178.994 38.7847C179.026 38.7964 179.084 38.8301 179.169 38.8857C179.254 38.9385 179.328 39 179.389 39.0703C179.454 39.1377 179.511 39.2314 179.561 39.3516C179.613 39.4717 179.64 39.6035 179.64 39.7471C179.64 40.1191 179.496 40.4297 179.209 40.6787C178.925 40.9277 178.542 41.0522 178.062 41.0522H175.768V36.6401ZM177.974 39.1626H176.981V40.0635H177.974C178.112 40.0635 178.22 40.021 178.299 39.936C178.381 39.8511 178.422 39.7427 178.422 39.6108C178.422 39.479 178.381 39.3721 178.299 39.29C178.22 39.2051 178.112 39.1626 177.974 39.1626ZM177.882 38.354C178.122 38.354 178.242 38.2339 178.242 37.9937C178.242 37.7534 178.122 37.6333 177.882 37.6333H176.981V38.354H177.882Z" fill="white"/>
<g clip-path="url(#clip0_196_1949)">
<path d="M23.2924 53V49.0156C18.6171 47.9841 14.3538 45.4467 10.8702 41.5949C6.50386 36.7676 4 30.3695 4 24.0392C4 17.6636 6.52856 11.5491 11.0294 7.04092C15.5303 2.53269 21.6348 0 28 0C34.3652 0 40.4697 2.53269 44.9706 7.04092C49.4714 11.5491 52 17.6636 52 24.0392C52 30.4874 49.4549 37.6812 45.1916 43.2865C40.4281 49.549 34.3229 53.0118 28 53.0118L23.2924 53Z" fill="white"/>
<path d="M25.6462 50.6424V47.0263C20.7738 46.4369 16.231 43.9938 12.6149 40.0123C8.644 35.6365 6.41589 29.9522 6.35382 24.0392C6.35382 18.2889 8.6344 12.7741 12.6938 8.70805C16.7533 4.64197 22.2591 2.35767 28 2.35767C33.7409 2.35767 39.2467 4.64197 43.3062 8.70805C47.3656 12.7741 49.6462 18.2889 49.6462 24.0392C49.6462 36.0898 39.9897 50.6424 28 50.6424H25.6462Z" fill="#6162F2"/>
<path d="M28 48.2847V44.8131C17.3461 44.8131 8.70761 34.7105 8.70761 24.0392C8.70761 18.9142 10.7402 13.9991 14.3582 10.3751C17.9762 6.75121 22.8833 4.7153 28 4.7153C33.1167 4.7153 38.0238 6.75121 41.6418 10.3751C45.2598 13.9991 47.2924 18.9142 47.2924 24.0392C47.2924 34.7105 38.6539 48.2847 28 48.2847Z" fill="#1A1B1E"/>
<path d="M34.2288 11.5171H21.7683C16.9503 11.5171 13.0445 15.4286 13.0445 20.2537C13.0445 25.0788 16.9503 28.9903 21.7683 28.9903H34.2288C39.0468 28.9903 42.9526 25.0788 42.9526 20.2537C42.9526 15.4286 39.0468 11.5171 34.2288 11.5171Z" fill="#6162F2"/>
<path d="M23.0158 33.9826H32.9842C32.9842 35.3067 32.4591 36.5765 31.5243 37.5127C30.5896 38.449 29.3219 38.9749 28 38.9749C26.6781 38.9749 25.4104 38.449 24.4756 37.5127C23.5409 36.5765 23.0158 35.3067 23.0158 33.9826Z" fill="#6162F2"/>
<path d="M24.9194 19.0056H18.6201C18.2951 19.0056 18.0316 19.2695 18.0316 19.595V20.9124C18.0316 21.2379 18.2951 21.5018 18.6201 21.5018H24.9194C25.2444 21.5018 25.5079 21.2379 25.5079 20.9124V19.595C25.5079 19.2695 25.2444 19.0056 24.9194 19.0056Z" fill="white"/>
<path d="M22.4274 16.5095H21.1122C20.7872 16.5095 20.5237 16.7733 20.5237 17.0989V23.4085C20.5237 23.7341 20.7872 23.998 21.1122 23.998H22.4274C22.7524 23.998 23.0158 23.7341 23.0158 23.4085V17.0989C23.0158 16.7733 22.7524 16.5095 22.4274 16.5095Z" fill="white"/>
<path d="M35.4763 22.7499C35.4763 22.0606 34.9184 21.5018 34.2302 21.5018C33.5421 21.5018 32.9842 22.0606 32.9842 22.7499C32.9842 23.4391 33.5421 23.9979 34.2302 23.9979C34.9184 23.9979 35.4763 23.4391 35.4763 22.7499Z" fill="white"/>
<path d="M35.4763 17.7575C35.4763 17.0682 34.9184 16.5095 34.2302 16.5095C33.5421 16.5095 32.9842 17.0682 32.9842 17.7575C32.9842 18.4468 33.5421 19.0056 34.2302 19.0056C34.9184 19.0056 35.4763 18.4468 35.4763 17.7575Z" fill="white"/>
<path d="M31.7381 21.5018C32.4263 21.5018 32.9842 20.943 32.9842 20.2537C32.9842 19.5644 32.4263 19.0056 31.7381 19.0056C31.05 19.0056 30.4921 19.5644 30.4921 20.2537C30.4921 20.943 31.05 21.5018 31.7381 21.5018Z" fill="white"/>
<path d="M36.7223 21.5018C37.4105 21.5018 37.9684 20.943 37.9684 20.2537C37.9684 19.5644 37.4105 19.0056 36.7223 19.0056C36.0342 19.0056 35.4763 19.5644 35.4763 20.2537C35.4763 20.943 36.0342 21.5018 36.7223 21.5018Z" fill="white"/>
</g>
</g>
<defs>
<filter id="filter0_d_196_1949" x="0" y="0" width="184" height="61" filterUnits="userSpaceOnUse" color-interpolation-filters="sRGB">
<feFlood flood-opacity="0" result="BackgroundImageFix"/>
<feColorMatrix in="SourceAlpha" type="matrix" values="0 0 0 0 0 0 0 0 0 0 0 0 0 0 0 0 0 0 127 0" result="hardAlpha"/>
<feOffset dy="4"/>
<feGaussianBlur stdDeviation="2"/>
<feComposite in2="hardAlpha" operator="out"/>
<feColorMatrix type="matrix" values="0 0 0 0 0 0 0 0 0 0 0 0 0 0 0 0 0 0 0.25 0"/>
<feBlend mode="normal" in2="BackgroundImageFix" result="effect1_dropShadow_196_1949"/>
<feBlend mode="normal" in="SourceGraphic" in2="effect1_dropShadow_196_1949" result="shape"/>
</filter>
<clipPath id="clip0_196_1949">
<rect width="48" height="53" fill="white" transform="translate(4)"/>
</clipPath>
</defs>
</svg>
