<svg width="40" height="24" viewBox="0 0 40 24" fill="none" xmlns="http://www.w3.org/2000/svg">
<path fill-rule="evenodd" clip-rule="evenodd" d="M19.6227 21.1336C17.5513 22.9211 14.8643 24.0002 11.9282 24.0002C5.37685 24.0002 0.065918 18.6277 0.065918 12.0002C0.065918 5.37283 5.37685 0.000244141 11.9282 0.000244141C14.8643 0.000244141 17.5513 1.07935 19.6227 2.86689C21.6941 1.07935 24.381 0.000244141 27.3171 0.000244141C33.8685 0.000244141 39.1794 5.37283 39.1794 12.0002C39.1794 18.6277 33.8685 24.0002 27.3171 24.0002C24.381 24.0002 21.6941 22.9211 19.6227 21.1336Z" fill="#ED0006"/>
<path fill-rule="evenodd" clip-rule="evenodd" d="M19.6227 21.1336C22.1732 18.9326 23.7905 15.6575 23.7905 12.0002C23.7905 8.34301 22.1732 5.06791 19.6227 2.86689C21.6941 1.07935 24.381 0.000244141 27.3171 0.000244141C33.8685 0.000244141 39.1794 5.37283 39.1794 12.0002C39.1794 18.6277 33.8685 24.0002 27.3171 24.0002C24.381 24.0002 21.6941 22.9211 19.6227 21.1336Z" fill="#F9A000"/>
<path fill-rule="evenodd" clip-rule="evenodd" d="M19.6227 21.1338C22.1732 18.9328 23.7905 15.6577 23.7905 12.0005C23.7905 8.3433 22.1732 5.06821 19.6227 2.86719C17.0722 5.06821 15.4549 8.3433 15.4549 12.0005C15.4549 15.6577 17.0722 18.9328 19.6227 21.1338Z" fill="#FF5E00"/>
</svg>
