<svg width="25" height="24" viewBox="0 0 25 24" fill="none" xmlns="http://www.w3.org/2000/svg">
<path d="M13.6653 0.0712891V12.4241C13.6653 12.9888 13.2417 13.4124 12.677 13.4124H11.1947C11.1241 13.4124 11.0535 13.483 11.0535 13.5535V23.9299C11.4064 23.9299 11.7594 24.0005 12.1829 24.0005C18.8182 24.0005 24.1829 18.6359 24.1829 12.0006C24.1829 5.85948 19.5947 0.777166 13.6653 0.0712891ZM13.3829 18.5653C12.5358 18.5653 11.9006 17.8594 11.9006 17.0829C11.9006 16.2359 12.6064 15.6006 13.3829 15.6006C14.23 15.6006 14.8653 16.3065 14.8653 17.0829C14.9358 17.8594 14.23 18.5653 13.3829 18.5653ZM16.9123 18.5653C16.0653 18.5653 15.43 17.8594 15.43 17.0829C15.43 16.2359 16.1358 15.6006 16.9123 15.6006C17.7594 15.6006 18.3947 16.3065 18.3947 17.0829C18.3947 17.8594 17.7594 18.5653 16.9123 18.5653ZM20.4417 18.5653C19.5947 18.5653 18.9594 17.8594 18.9594 17.0829C18.9594 16.2359 19.6653 15.6006 20.4417 15.6006C21.2888 15.6006 21.9241 16.3065 21.9241 17.0829C21.9241 17.8594 21.2888 18.5653 20.4417 18.5653Z" fill="#00985F"/>
<path d="M12.183 0C5.54775 0 0.183075 5.36468 0.183075 11.9999C0.183075 17.7881 4.20658 22.5881 9.64184 23.7175V12.9176C9.64184 12.4235 10.0654 11.9999 10.5595 11.9294H12.0418C12.1124 11.9294 12.183 11.8588 12.183 11.7882V0ZM9.8536 9.8823C9.00655 9.8823 8.37126 9.17642 8.37126 8.39996C8.37126 7.5529 9.07713 6.91761 9.8536 6.91761C10.7007 6.91761 11.3359 7.62349 11.3359 8.39996C11.3359 9.17642 10.7007 9.8823 9.8536 9.8823Z" fill="#00985F"/>
</svg>
