<svg width="60" height="60" viewBox="0 0 28 28" fill="none" xmlns="http://www.w3.org/2000/svg">
<path d="M13.6028 1.10109C13.7443 1.02234 13.9535 1.08086 14.0022 1.24437C14.0546 1.37945 13.9639 1.50305 13.8896 1.6075C13.3635 2.35398 13.0145 3.22133 12.8495 4.11875C12.7495 4.16141 12.7205 4.26641 12.7517 4.36539C12.8009 4.38344 12.8506 4.3993 12.9008 4.41461C13.9219 4.32492 14.9576 4.34352 15.9628 4.55844C17.7918 4.92703 19.5012 5.85344 20.815 7.17797C22.125 8.48883 23.0445 10.1874 23.4165 12.0047C23.8289 13.9723 23.5984 16.0669 22.7735 17.8995C21.0243 21.6417 18.0753 24.807 14.4671 26.8135C14.3507 26.8677 14.183 26.8698 14.1032 26.7539C14.0093 26.6325 14.048 26.4597 14.1409 26.3492C14.6277 25.6695 14.9675 24.888 15.1521 24.0731C15.1876 23.9041 15.2362 23.733 15.2215 23.5591C15.1619 23.4814 15.0636 23.5049 14.98 23.5077C13.2286 23.6832 11.4264 23.3698 9.84375 22.5955C8.14859 21.7779 6.71019 20.4413 5.75909 18.8166C4.87792 17.322 4.41466 15.5813 4.44689 13.8449C4.4529 12.2513 4.8872 10.6709 5.65202 9.27578C7.4324 5.85398 10.2278 2.96648 13.6028 1.10109ZM13.5045 10.2454C12.4627 10.3854 11.5018 10.9979 10.9183 11.8707C10.5233 12.4701 10.2841 13.1821 10.289 13.9029C10.2595 14.8687 10.6441 15.8361 11.3106 16.5317C11.8929 17.1595 12.702 17.5686 13.5504 17.678C14.4141 17.7923 15.316 17.5899 16.0475 17.1147C16.791 16.6422 17.3575 15.8962 17.611 15.0513C18.0868 13.5846 17.5165 11.8663 16.2753 10.9602C15.4957 10.3663 14.4736 10.1027 13.5045 10.2454Z" fill="#F15A23"/>
</svg>
