<svg width="40" height="40" viewBox="0 0 40 40" fill="none" xmlns="http://www.w3.org/2000/svg">
<path d="M30.9846 20.2117L27.5742 23.293L30.6535 26.7012L34.0639 23.6199L30.9846 20.2117Z" fill="#036CB5"/>
<path d="M24.1886 22.9822L19.6406 27.0762L23.7365 31.6263L28.2845 27.5324L24.1886 22.9822Z" fill="#036CB5"/>
<path d="M37.135 19.1263L34.8633 21.1738L36.9108 23.4455L39.1825 21.398L37.135 19.1263Z" fill="#036CB5"/>
<path d="M24.9215 6.15368L21.5078 9.22656L24.5807 12.6403L27.9944 9.56738L24.9215 6.15368Z" fill="#036CB5"/>
<path d="M34.228 12.3384L31.9609 14.3867L34.0112 16.656L36.2783 14.6076L34.228 12.3384Z" fill="#036CB5"/>
<path d="M20.9625 15.0994L16.4102 19.1973L20.506 23.7474L25.0584 19.6496L20.9625 15.0994Z" fill="#036CB5"/>
<path d="M17.7103 7.34553L13.1602 11.4414L17.256 15.9916L21.8062 11.8957L17.7103 7.34553Z" fill="#036CB5"/>
<path d="M28.0576 13.0202L24.6523 16.0938L27.7318 19.5055L31.137 16.4319L28.0576 13.0202Z" fill="#036CB5"/>
<path d="M31.3068 5.59115L29.0352 7.63867L31.0827 9.91036L33.3544 7.86284L31.3068 5.59115Z" fill="#036CB5"/>
<path d="M33.9904 27.1069L30.5781 30.1816L33.6548 33.5961L37.0671 30.5214L33.9904 27.1069Z" fill="#036CB5"/>
<path d="M28.0048 30.9757L23.5571 35.0767L16.0483 26.7203L18.1367 24.8824L12.8794 18.996L14.9794 17.1552L9.64343 11.2745L17.9707 3.77738L20.6154 6.67256L25.0805 2.68806L27.7193 5.42303L29.4786 3.84729C29.0854 3.6201 28.6921 3.41039 28.2931 3.22107C25.7562 1.98028 22.9076 1.28125 19.9076 1.28125C9.37256 1.28125 0.777344 9.87356 0.777344 20.4115C0.777344 30.9466 9.37256 39.5389 19.9076 39.5389C23.33 39.5389 26.5543 38.633 29.3358 37.0456C30.2533 36.5272 31.0892 35.965 31.8524 35.3738L28.0048 30.9757Z" fill="#036CB5"/>
</svg>
