<svg width="40" height="40" viewBox="0 0 40 40" fill="none" xmlns="http://www.w3.org/2000/svg">
<g clip-path="url(#clip0_204_8024)">
<path d="M22.483 1.29297V20.722C22.483 21.6102 21.8156 22.2763 20.9257 22.2763H18.5897C18.4784 22.2763 18.3672 22.3873 18.3672 22.4984V38.8187C18.9234 38.8187 19.4796 38.9298 20.147 38.9298C30.6035 38.9298 39.0577 30.492 39.0577 20.0558C39.0577 10.3969 31.8272 2.4032 22.483 1.29297ZM22.0381 30.381C20.7032 30.381 19.7021 29.2708 19.7021 28.0495C19.7021 26.7172 20.8145 25.718 22.0381 25.718C23.373 25.718 24.3741 26.8283 24.3741 28.0495C24.4854 29.2708 23.373 30.381 22.0381 30.381ZM27.6001 30.381C26.2652 30.381 25.264 29.2708 25.264 28.0495C25.264 26.7172 26.3764 25.718 27.6001 25.718C28.9349 25.718 29.9361 26.8283 29.9361 28.0495C29.9361 29.2708 28.9349 30.381 27.6001 30.381ZM33.162 30.381C31.8272 30.381 30.826 29.2708 30.826 28.0495C30.826 26.7172 31.9384 25.718 33.162 25.718C34.4969 25.718 35.4981 26.8283 35.4981 28.0495C35.4981 29.2708 34.4969 30.381 33.162 30.381Z" fill="#00985F"/>
<path d="M20.1451 1.18164C9.68858 1.18164 1.23438 9.61939 1.23438 20.0555C1.23438 29.1594 7.57503 36.709 16.1405 38.4854V21.4988C16.1405 20.7217 16.8079 20.0556 17.5866 19.9445H19.9226C20.0339 19.9445 20.1451 19.8335 20.1451 19.7225V1.18164ZM16.4742 16.7249C15.1393 16.7249 14.1382 15.6146 14.1382 14.3934C14.1382 13.0611 15.2506 12.0619 16.4742 12.0619C17.8091 12.0619 18.8102 13.1721 18.8102 14.3934C18.8102 15.6146 17.8091 16.7249 16.4742 16.7249Z" fill="#00985F"/>
</g>
<defs>
<clipPath id="clip0_204_8024">
<rect width="40" height="40" fill="white"/>
</clipPath>
</defs>
</svg>
