<svg width="90" height="40" viewBox="0 0 90 40" fill="none" xmlns="http://www.w3.org/2000/svg">
<path d="M1.72266 15.6521V20.3502L14.4335 18.9573V13.8814L1.72266 15.6521ZM5.7778 20.6099V36.6876H10.4258V20.1378L5.7778 20.6099ZM16.1409 13.6217V36.6876H21.0498V12.9371L16.1409 13.6217ZM21.9509 12.819V18.131L29.0178 17.3519V11.8274L21.9509 12.819ZM21.9509 22.0737V27.4801L26.5989 27.2204V21.6723L21.9509 22.0737ZM21.9509 31.352V36.6876H29.0178V31.1395L21.9509 31.352ZM47.3489 9.25407V36.6876H53.7755V8.35693L47.3489 9.25407ZM54.9612 8.19167V14.4952L64.3284 13.4801V6.89318L54.9612 8.19167ZM54.9612 19.2406V25.6622L61.1032 25.3317V18.7212L54.9612 19.2406ZM54.9612 30.3604V36.6876H64.3284V30.0771L54.9612 30.3604ZM30.9149 11.5677V36.6876H36.4878V10.765L30.9149 11.5677ZM37.5312 30.8798V36.664H45.6415V30.6201L37.5312 30.8798ZM85.3392 6.56266C83.2998 4.65034 80.3355 3.87125 77.0629 4.34342V11.3317C78.3909 11.2608 79.4581 11.7566 79.9324 12.7246C80.6912 14.2828 79.9087 16.5964 78.0826 18.7448C75.2607 22.0737 67.7432 28.8494 67.7432 28.8494L78.5332 28.4953C85.1258 22.0973 87.4972 18.2018 87.9004 13.3384C88.1138 10.7886 87.1889 8.30971 85.3392 6.56266ZM88.2798 36.6876V29.3688L66.4152 30.0299L88.2798 36.6876ZM66.4152 30.0063V36.664H88.2798L66.4152 30.0063ZM75.8061 4.48507C69.4507 5.83078 66.3441 10.4817 66.6998 18.0838L73.4821 17.4936C73.1738 13.1968 74.5018 12.1816 75.8298 11.6386L75.8061 4.48507Z" fill="#E5E5E5"/>
</svg>
