<svg width="60" height="40" viewBox="0 0 60 40" fill="none" xmlns="http://www.w3.org/2000/svg">
<g clip-path="url(#clip0_204_7929)">
<path d="M37.7086 5.65625H22.2617V34.3456H37.7086V5.65625Z" fill="#FF5F00"/>
<path d="M23.2383 19.9995C23.2359 17.2365 23.8417 14.5091 25.0098 12.0239C26.178 9.53866 27.8779 7.36067 29.9809 5.65482C27.3767 3.53916 24.249 2.22347 20.9555 1.85811C17.6619 1.49276 14.3354 2.09247 11.356 3.58874C8.37666 5.08501 5.86472 7.41745 4.10732 10.3195C2.34992 13.2215 1.41797 16.5759 1.41797 19.9995C1.41797 23.423 2.34992 26.7775 4.10732 29.6795C5.86472 32.5815 8.37666 34.914 11.356 36.4102C14.3354 37.9065 17.6619 38.5062 20.9555 38.1409C24.249 37.7755 27.3767 36.4598 29.9809 34.3442C27.8779 32.6383 26.178 30.4603 25.0099 27.9751C23.8417 25.4898 23.2359 22.7625 23.2383 19.9995Z" fill="#EB001B"/>
<path d="M58.5465 19.9995C58.5466 23.423 57.6147 26.7775 55.8574 29.6795C54.1001 32.5815 51.5883 34.9139 48.609 36.4102C45.6297 37.9065 42.3032 38.5062 39.0097 38.1409C35.7162 37.7755 32.5886 36.4598 29.9844 34.3442C32.0855 32.6366 33.7841 30.4582 34.9521 27.9734C36.1201 25.4885 36.727 22.762 36.727 19.9995C36.727 17.2369 36.1201 14.5104 34.9521 12.0256C33.7841 9.54073 32.0855 7.36239 29.9844 5.65482C32.5886 3.53915 35.7162 2.22346 39.0097 1.85811C42.3032 1.49276 45.6297 2.0925 48.609 3.58878C51.5883 5.08507 54.1001 7.41751 55.8574 10.3195C57.6147 13.2215 58.5466 16.576 58.5465 19.9995Z" fill="#F79E1B"/>
</g>
<defs>
<clipPath id="clip0_204_7929">
<rect width="60" height="40" fill="white"/>
</clipPath>
</defs>
</svg>
