<svg width="40" height="40" viewBox="0 0 40 40" fill="none" xmlns="http://www.w3.org/2000/svg">
<circle cx="20" cy="20" r="19" fill="#5F69A4"/>
<mask id="mask0_204_7998" style="mask-type:alpha" maskUnits="userSpaceOnUse" x="1" y="1" width="38" height="38">
<circle cx="20" cy="20" r="19" fill="#5F69A4"/>
</mask>
<g mask="url(#mask0_204_7998)">
<path d="M22.1661 7.41406C18.1979 7.41406 14.9608 10.6085 14.93 14.547L10.4239 20.9774C9.16672 20.8637 8.08256 21.1231 7.12399 21.7049L0.953125 19.2202V26.006L4.60256 27.467C5.12983 29.883 7.30172 31.7041 9.87173 31.7041C12.6657 31.7041 14.9809 29.5678 15.2357 26.8473L22.1732 21.8009C26.1532 21.8009 29.3903 18.5887 29.3903 14.6051L29.3891 14.6039C29.3891 10.6393 26.152 7.41406 22.1661 7.41406ZM9.87173 30.2728C8.34678 30.2728 7.03394 29.4185 6.36685 28.1732C7.01379 28.4196 7.66785 28.691 8.31598 28.9445C9.93571 29.6081 11.7758 28.8178 12.4228 27.2051C13.0768 25.5925 12.283 23.7725 10.6656 23.1268L9.01506 22.4632C9.30061 22.3993 9.58617 22.3685 9.87173 22.3685C12.0744 22.3685 13.8387 24.1256 13.8387 26.32C13.8387 28.5156 12.0744 30.2728 9.87173 30.2728ZM22.1732 19.424C19.4941 19.424 17.3175 17.2735 17.3175 14.6051C17.3175 11.9486 19.4882 9.7862 22.1732 9.7862C24.8332 9.7862 27.0098 11.9486 27.0098 14.6051C27.0098 17.2806 24.832 19.4311 22.1732 19.424Z" fill="#0A1017"/>
<path d="M22.1874 10.7383C20.0487 10.7383 18.3164 12.4647 18.3164 14.5951C18.3164 16.7255 20.0428 18.4519 22.1874 18.4519C24.3131 18.4519 26.0584 16.7314 26.0584 14.5951C26.0584 12.4587 24.3131 10.7383 22.1874 10.7383Z" fill="#0A1017"/>
</g>
</svg>
