<svg width="31" height="40" viewBox="0 0 31 40" fill="none" xmlns="http://www.w3.org/2000/svg">
<path fill-rule="evenodd" clip-rule="evenodd" d="M1.21137 19.8499C1.21137 17.729 1.38827 16.383 5.75812 13.1042C9.37588 10.3896 20.9721 1.11328 20.9721 1.11328V16.5984H29.7907V38.8855H3.96574C2.45087 38.8855 1.21094 37.6391 1.21094 36.1163L1.21137 19.8501V19.8499Z" fill="#FFCF01"/>
<path fill-rule="evenodd" clip-rule="evenodd" d="M20.9705 16.5977V25.5702L4.76562 36.6668L25.2537 29.9662V16.5977H20.9705Z" fill="#D3AC06"/>
<path fill-rule="evenodd" clip-rule="evenodd" d="M13.5653 16.1337C14.5131 14.9987 15.897 14.5981 16.657 15.239C17.4169 15.88 17.265 17.3199 16.3173 18.4549C15.3703 19.5897 13.9858 19.9899 13.2258 19.3489C12.4659 18.708 12.6182 17.2684 13.5653 16.1336V16.1337Z" fill="#231F20"/>
</svg>
