<svg width="106" height="40" viewBox="0 0 106 40" fill="none" xmlns="http://www.w3.org/2000/svg">
<path d="M39.0859 35L44.3859 5H52.6672L47.5328 35H39.0859Z" fill="#00579F"/>
<path d="M77.5125 5.33334C75.8562 4.66667 73.2062 4 69.8937 4C61.6125 4 55.65 8.16667 55.65 14.1667C55.65 18.6667 59.7906 21 63.1031 22.5C66.4156 24 67.4094 25 67.4094 26.3333C67.4094 28.3333 64.7594 29.3333 62.4406 29.3333C59.1281 29.3333 57.3063 28.8333 54.4906 27.6667L53.3313 27.1667L52.1719 34C54.1594 34.8333 57.8031 35.6667 61.6125 35.6667C70.3906 35.6667 76.1875 31.5 76.1875 25.1667C76.1875 21.6667 74.0344 19 69.0656 16.8333C66.0844 15.3333 64.2625 14.5 64.2625 13C64.2625 11.6667 65.7531 10.3333 69.0656 10.3333C71.8813 10.3333 73.8687 10.8333 75.3594 11.5L76.1875 11.8333L77.5125 5.33334Z" fill="#00579F"/>
<path d="M91.7555 5C89.768 5 88.2773 5.16667 87.4492 7.16667L75.0273 35H83.9711L85.6273 30H96.2273L97.2211 35H105.171L98.2148 5H91.7555ZM87.9461 25C88.443 23.5 91.2586 16.1667 91.2586 16.1667C91.2586 16.1667 91.9211 14.3333 92.418 13.1667L92.9148 16C92.9148 16 94.5711 23.5 94.9023 25.1667H87.9461V25Z" fill="#00579F"/>
<path d="M23.8516 26.0013L23.0234 21.668C21.5328 16.668 16.7297 11.168 11.4297 8.5013L18.8828 35.168H27.8266L41.2422 5.16797H32.2984L23.8516 26.0013Z" fill="#00579F"/>
<path d="M0.828125 5L2.31875 5.33333C12.9187 7.83333 20.2062 14.1667 23.0219 21.6667L20.0406 7.5C19.5437 5.5 18.0531 5 16.2312 5H0.828125Z" fill="#FAA61A"/>
</svg>
