<svg width="40" height="40" viewBox="0 0 40 40" fill="none" xmlns="http://www.w3.org/2000/svg">
<path d="M0.332031 19.9816C0.332031 30.6945 9.01161 39.3754 19.7258 39.3754C30.44 39.3754 39.1195 30.6958 39.1195 19.9816C39.1195 9.26747 30.44 0.587891 19.7258 0.587891C9.01161 0.587891 0.332031 9.28661 0.332031 19.9816Z" fill="url(#paint0_linear_204_8017)"/>
<path d="M5.21484 7.12633C14.585 6.3273 24.8626 6.30943 34.2314 7.12633C30.6728 3.1133 25.497 0.589844 19.7225 0.589844C13.9493 0.588568 8.77475 3.1133 5.21484 7.12633Z" fill="#231F20"/>
<path d="M34.4317 32.6387C25.3348 33.3471 14.5121 33.402 5.01562 32.6387C8.57425 36.7793 13.8407 39.3934 19.7237 39.3934C25.6066 39.3934 30.8731 36.7602 34.4317 32.6387Z" fill="#231F20"/>
<path d="M0.963776 15.0602C13.5836 14.8419 25.8767 14.8062 38.4787 15.0602C38.8961 16.6404 39.1143 18.292 39.1143 19.9807C39.1143 21.4511 38.951 22.9037 38.6421 24.2848C25.8767 24.6485 13.3105 24.5566 0.800396 24.2848C0.491505 22.905 0.328125 21.4703 0.328125 19.9807C0.329401 18.292 0.54639 16.6391 0.963776 15.0602Z" fill="#231F20"/>
<defs>
<linearGradient id="paint0_linear_204_8017" x1="0.331695" y1="19.9819" x2="39.1188" y2="19.9819" gradientUnits="userSpaceOnUse">
<stop stop-color="#FAA61A"/>
<stop offset="1" stop-color="#FFE100"/>
</linearGradient>
</defs>
</svg>
