<svg width="40" height="40" viewBox="0 0 40 40" fill="none" xmlns="http://www.w3.org/2000/svg">
<g opacity="0.99">
<path opacity="0.99" d="M38.7489 19.9995C38.7489 25.0156 36.7563 29.8264 33.2093 33.3733C29.6623 36.9203 24.8516 38.913 19.8354 38.913C17.3516 38.913 14.8922 38.4238 12.5975 37.4733C10.3028 36.5228 8.2178 35.1296 6.46152 33.3733C4.70524 31.6171 3.31208 29.532 2.36158 27.2374C1.41109 24.9427 0.921875 22.4832 0.921875 19.9995C0.921875 14.9833 2.91455 10.1726 6.46152 6.62558C10.0085 3.07861 14.8192 1.08594 19.8354 1.08594C24.8516 1.08594 29.6623 3.07861 33.2093 6.62558C36.7563 10.1726 38.7489 14.9833 38.7489 19.9995Z" fill="#F7931A"/>
</g>
<path d="M16.9167 10V13.3333C16.5069 13.35 15.7548 13.3333 15.3623 13.3333H12.75V15C12.75 15 14.1824 14.975 14.1595 15C14.9264 14.9883 15.1706 15.5451 15.25 15.9163V24.1667C15.2206 24.4013 15.2456 24.9833 14.7096 25C14.7344 25.0217 12.75 25 12.75 25V26.6667H15.4616C15.9201 26.65 16.4737 26.6667 16.9167 26.6667V30L18.5833 29.9691V26.6667H20.224L20.276 30H21.9427L21.8906 26.6667C25.0703 26.4359 26.9182 25 26.9182 22.915C26.9182 21.6667 25.7137 20 24.4182 20C24.8864 20 26.0848 18.3333 26.0848 16.6667C26.0848 15.2313 25.1766 13.796 23.5766 13.4252C23.3187 13.3654 22.2112 13.3333 21.9182 13.3333L21.9166 10H20.25V13.3333C19.7523 13.3333 19.0902 13.315 18.5849 13.3333L18.5833 10H16.9167ZM18.5833 15C20.25 15 22.7503 15 22.75 17.0833C22.7503 19.1668 20.25 19.1667 18.5833 19.1667V15ZM18.5833 20.8333C21.9167 20.8334 23.5837 20.8334 23.5833 22.9167C23.5837 25.0001 21.9167 25 18.5833 25V20.8333Z" fill="white"/>
</svg>
