<svg width="40" height="40" viewBox="0 0 40 40" fill="none" xmlns="http://www.w3.org/2000/svg">
<path d="M30.4111 25.0095C31.0777 25.2649 31.3329 26.2621 31.384 26.6946C31.4861 27.4875 31.2549 27.7939 30.9996 27.7939C30.7444 27.7939 30.3871 27.4875 30.0028 26.8748C29.6184 26.2621 29.4653 25.5712 29.6725 25.2138C29.7986 24.9825 30.0808 24.8804 30.4111 25.0095ZM26.5257 27.899C26.937 27.899 27.3964 28.0793 27.8048 28.4337C28.5975 29.1005 28.8257 29.8664 28.4173 30.4281C28.1891 30.7104 27.8048 30.8877 27.3694 30.8877C26.934 30.8877 26.4746 30.7375 26.1683 30.4551C25.4537 29.8394 25.2495 28.8182 25.7089 28.2565C25.8074 28.1367 25.9326 28.0416 26.0744 27.979C26.2163 27.9164 26.3708 27.888 26.5257 27.896V27.899ZM17.5807 35.288C14.1032 35.2874 10.704 34.2554 7.81284 32.3224C4.92168 30.3894 2.66841 27.6423 1.33791 24.4284C0.00741656 21.2145 -0.340546 17.6782 0.33802 14.2664C1.01659 10.8547 2.69121 7.7209 5.15015 5.26117C7.60909 2.80144 10.7419 1.12629 14.1525 0.447503C17.5632 -0.23128 21.0984 0.116794 24.3113 1.44771C27.5242 2.77863 30.2704 5.03263 32.2027 7.92472C34.1351 10.8168 35.1668 14.2171 35.1674 17.6957C35.1653 20.8725 34.3086 23.9901 32.6871 26.7216C32.6361 26.7967 32.507 26.7727 32.483 26.6706C31.8704 22.3483 29.2371 19.9724 25.4027 19.2546C25.0724 19.2035 25.0183 18.9993 25.4537 18.9482C26.6277 18.8461 28.2912 18.8701 29.159 19.0233C29.3487 17.3922 29.1914 15.7395 28.6974 14.1736C28.2035 12.6076 27.3841 11.1639 26.2929 9.93708C25.2018 8.71029 23.8636 7.72821 22.3663 7.0553C20.8689 6.38238 19.2462 6.03384 17.6047 6.03256C11.191 6.03256 5.97533 11.2529 5.97533 17.6687C5.97533 24.0844 11.191 29.3047 17.6077 29.3047H18.1422C17.9608 28.2668 17.8843 27.2132 17.914 26.1599C17.944 25.4421 18.0941 25.3399 18.4004 25.9016C20.0128 28.689 22.3129 31.197 26.8109 32.1942C30.4922 33.0112 34.1735 33.9574 38.134 38.9945C38.4943 39.43 37.9538 39.8896 37.5455 39.5321C33.5069 35.9518 29.8286 34.7744 26.4776 34.7744C22.7213 34.8014 20.166 35.285 17.5837 35.285L17.5807 35.288Z" fill="#FF8C00"/>
</svg>
