<svg width="25" height="24" viewBox="0 0 25 24" fill="none" xmlns="http://www.w3.org/2000/svg">
<path d="M19.087 15.0912C19.4817 15.262 19.6508 15.8315 19.6508 16.1162C19.7072 16.5718 19.5945 16.7996 19.4253 16.7996C19.2561 16.7996 19.0306 16.6287 18.805 16.2301C18.5795 15.8315 18.4667 15.4329 18.5795 15.2051C18.7486 15.0912 18.9178 15.0342 19.087 15.0912Z" fill="#F28A1A"/>
<path d="M16.775 16.8562C17.0006 16.8562 17.2825 16.9701 17.5645 17.1979C18.0156 17.5965 18.1847 18.0521 17.9592 18.3937C17.8464 18.5646 17.5645 18.6785 17.3389 18.6785C17.057 18.6785 16.775 18.5646 16.6059 18.3937C16.1548 17.9951 16.042 17.4257 16.3239 17.084C16.3803 16.9701 16.5495 16.8562 16.775 16.8562Z" fill="#F28A1A"/>
<path d="M11.4181 21.3549C5.55373 21.3549 0.817108 16.5715 0.817108 10.706C0.817108 4.84063 5.55373 0.000244141 11.4181 0.000244141C17.2825 0.000244141 22.0191 4.78369 22.0191 10.706C22.0191 12.6992 21.4552 14.5784 20.553 16.1728C20.4966 16.2298 20.4403 16.2298 20.4403 16.1159C20.0455 13.4964 18.4667 12.0727 16.2111 11.6172C15.9856 11.5602 15.9856 11.4463 16.2675 11.4463C17.0006 11.3894 17.9592 11.3894 18.5231 11.5033C18.5794 11.2186 18.5794 10.9338 18.5794 10.706C18.5794 6.83374 15.4217 3.64477 11.5873 3.64477C7.75288 3.64477 4.59513 6.83374 4.59513 10.706C4.59513 14.5784 7.75288 17.7673 11.5873 17.7673H11.9256C11.8128 17.1409 11.7565 16.5145 11.8128 15.8312C11.8128 15.3756 11.9256 15.3187 12.0948 15.6603C13.0534 17.3687 14.4631 18.8493 17.1697 19.4757C19.3689 19.9882 21.568 20.5577 23.9927 23.5758C24.2183 23.8605 23.8799 24.1453 23.6544 23.9175C21.2297 21.7535 19.0306 21.0132 17.0006 21.0132C14.4631 21.0702 12.9406 21.3549 11.4181 21.3549Z" fill="#F28A1A"/>
</svg>
