<svg width="182" height="30" viewBox="0 0 182 30" fill="none" xmlns="http://www.w3.org/2000/svg">
<path d="M28.0382 12.8901L22.1985 18.5826L23.5775 26.6226C23.6375 26.9741 23.4932 27.3295 23.2044 27.5395C23.0413 27.6585 22.8472 27.7185 22.6532 27.7185C22.5041 27.7185 22.3541 27.6829 22.2172 27.6107L14.9966 23.8148L7.77692 27.6098C7.46192 27.7766 7.07848 27.7495 6.78973 27.5385C6.50098 27.3285 6.35661 26.9732 6.41661 26.6216L7.79567 18.5816L1.95504 12.8901C1.70004 12.6407 1.60723 12.2676 1.71786 11.9291C1.82848 11.5907 2.12192 11.3423 2.47536 11.2907L10.5463 10.1188L14.1557 2.80445C14.4716 2.16414 15.5216 2.16414 15.8375 2.80445L19.4469 10.1188L27.5179 11.2907C27.8713 11.3423 28.1647 11.5898 28.2754 11.9291C28.386 12.2685 28.2932 12.6398 28.0382 12.8901V12.8901Z" fill="#1380E6"/>
<path d="M66.0382 12.8901L60.1985 18.5826L61.5775 26.6226C61.6375 26.9741 61.4932 27.3295 61.2044 27.5395C61.0413 27.6585 60.8472 27.7185 60.6532 27.7185C60.5041 27.7185 60.3541 27.6829 60.2172 27.6107L52.9966 23.8148L45.7769 27.6098C45.4619 27.7766 45.0785 27.7495 44.7897 27.5385C44.501 27.3285 44.3566 26.9732 44.4166 26.6216L45.7957 18.5816L39.955 12.8901C39.7 12.6407 39.6072 12.2676 39.7179 11.9291C39.8285 11.5907 40.1219 11.3423 40.4754 11.2907L48.5463 10.1188L52.1557 2.80445C52.4716 2.16414 53.5216 2.16414 53.8375 2.80445L57.4469 10.1188L65.5179 11.2907C65.8713 11.3423 66.1647 11.5898 66.2754 11.9291C66.386 12.2685 66.2932 12.6398 66.0382 12.8901V12.8901Z" fill="#1380E6"/>
<path d="M104.038 12.8901L98.1985 18.5826L99.5775 26.6226C99.6375 26.9741 99.4932 27.3295 99.2044 27.5395C99.0413 27.6585 98.8472 27.7185 98.6532 27.7185C98.5041 27.7185 98.3541 27.6829 98.2172 27.6107L90.9966 23.8148L83.7769 27.6098C83.4619 27.7766 83.0785 27.7495 82.7897 27.5385C82.501 27.3285 82.3566 26.9732 82.4166 26.6216L83.7957 18.5816L77.955 12.8901C77.7 12.6407 77.6072 12.2676 77.7179 11.9291C77.8285 11.5907 78.1219 11.3423 78.4754 11.2907L86.5463 10.1188L90.1557 2.80445C90.4716 2.16414 91.5216 2.16414 91.8375 2.80445L95.4469 10.1188L103.518 11.2907C103.871 11.3423 104.165 11.5898 104.275 11.9291C104.386 12.2685 104.293 12.6398 104.038 12.8901V12.8901Z" fill="#1380E6"/>
<path d="M142.038 12.8901L136.198 18.5826L137.578 26.6226C137.638 26.9741 137.493 27.3295 137.204 27.5395C137.041 27.6585 136.847 27.7185 136.653 27.7185C136.504 27.7185 136.354 27.6829 136.217 27.6107L128.997 23.8148L121.777 27.6098C121.462 27.7766 121.078 27.7495 120.79 27.5385C120.501 27.3285 120.357 26.9732 120.417 26.6216L121.796 18.5816L115.955 12.8901C115.7 12.6407 115.607 12.2676 115.718 11.9291C115.828 11.5907 116.122 11.3423 116.475 11.2907L124.546 10.1188L128.156 2.80445C128.472 2.16414 129.522 2.16414 129.838 2.80445L133.447 10.1188L141.518 11.2907C141.871 11.3423 142.165 11.5898 142.275 11.9291C142.386 12.2685 142.293 12.6398 142.038 12.8901V12.8901Z" fill="#1380E6"/>
<path d="M180.038 12.8901L174.198 18.5826L175.578 26.6226C175.638 26.9741 175.493 27.3295 175.204 27.5395C175.041 27.6585 174.847 27.7185 174.653 27.7185C174.504 27.7185 174.354 27.6829 174.217 27.6107L166.997 23.8148L159.777 27.6098C159.462 27.7766 159.078 27.7495 158.79 27.5385C158.501 27.3285 158.357 26.9732 158.417 26.6216L159.796 18.5816L153.955 12.8901C153.7 12.6407 153.607 12.2676 153.718 11.9291C153.828 11.5907 154.122 11.3423 154.475 11.2907L162.546 10.1188L166.156 2.80445C166.472 2.16414 167.522 2.16414 167.838 2.80445L171.447 10.1188L179.518 11.2907C179.871 11.3423 180.165 11.5898 180.275 11.9291C180.386 12.2685 180.293 12.6398 180.038 12.8901V12.8901Z" fill="#1380E6"/>
</svg>
