<svg width="512" height="390" viewBox="0 0 512 390" fill="none" xmlns="http://www.w3.org/2000/svg">
<path d="M442.655 190.476C438.599 148.59 417.539 106.782 399.443 83.6939C322.457 -14.1181 168.095 -13.8841 94.5414 108.966C73.8714 143.598 60.8454 220.662 76.2114 277.602C95.9454 350.532 173.633 378.924 259.979 378.222C340.709 377.598 404.123 342.498 427.913 294.06C442.811 263.718 446.633 232.362 442.655 190.476Z" fill="#1F2A3A"/>
<path d="M94.5414 108.966C73.8714 143.598 60.8454 220.662 76.2114 277.602C79.6434 290.394 84.9474 301.782 91.6554 311.922L177.377 262.392L250.463 220.194L422.141 121.056C414.965 106.236 406.931 93.2878 399.287 83.6158C322.457 -14.1182 168.095 -13.8842 94.5414 108.966Z" fill="#17212F"/>
<g opacity="0.2">
<path opacity="0.2" d="M94.6986 167.778C96.3366 166.842 97.7406 164.502 97.7406 162.552V156.468C97.7406 154.518 96.4146 153.738 94.6986 154.752L74.8086 166.218C73.8726 170.898 73.0926 175.734 72.3906 180.648L94.6986 167.778Z" fill="black"/>
<path opacity="0.2" d="M87.5986 122.772L94.6966 118.716C96.3346 117.78 97.7386 115.44 97.7386 113.49V107.406C97.7386 106.392 97.3486 105.69 96.7246 105.378C96.0226 106.548 95.2426 107.718 94.5406 108.888C92.1226 113.022 89.7826 117.624 87.5986 122.772Z" fill="black"/>
<path opacity="0.2" d="M124.961 69.2635L130.967 65.8315C132.605 64.8955 133.931 62.5555 134.009 60.6055C130.889 63.4135 127.847 66.2995 124.961 69.2635Z" fill="black"/>
<path opacity="0.2" d="M97.7393 226.59V220.506C97.7393 218.556 96.4133 217.776 94.6973 218.79L69.7373 233.22C69.8933 237.432 70.2053 241.644 70.5953 245.778L94.6973 231.816C96.4133 230.802 97.7393 228.54 97.7393 226.59Z" fill="black"/>
<path opacity="0.2" d="M170.2 135.72V129.636C170.2 127.686 168.874 126.906 167.158 127.92L139.312 143.988C137.674 144.924 136.27 147.264 136.27 149.214V155.298C136.27 157.248 137.596 158.028 139.312 157.014L167.158 140.946C168.796 140.01 170.2 137.67 170.2 135.72Z" fill="black"/>
<path opacity="0.2" d="M76.9141 280.019C77.5381 282.047 78.1621 283.997 78.7861 285.947V282.125C78.8641 280.721 78.0841 279.941 76.9141 280.019Z" fill="black"/>
<path opacity="0.2" d="M77.1472 208.805C78.7852 207.869 80.1892 205.529 80.1892 203.579V197.495C80.1892 195.545 78.8632 194.765 77.1472 195.779L70.3612 199.679C70.0492 204.125 69.7372 208.649 69.6592 213.095L77.1472 208.805Z" fill="black"/>
<path opacity="0.2" d="M175.583 104.129L203.429 88.0609C205.067 87.1249 206.471 84.7849 206.471 82.8349V76.7509C206.471 74.8009 205.145 74.0209 203.429 75.0349L175.583 91.1029C173.945 92.0389 172.541 94.3789 172.541 96.3289V102.413C172.541 104.285 173.867 105.065 175.583 104.129Z" fill="black"/>
<path opacity="0.2" d="M194.226 205.373L222.072 189.305C223.71 188.369 225.114 186.029 225.114 184.079V177.995C225.114 176.045 223.788 175.265 222.072 176.279L194.226 192.347C192.588 193.283 191.184 195.623 191.184 197.573V203.657C191.184 205.529 192.51 206.309 194.226 205.373Z" fill="black"/>
<path opacity="0.2" d="M121.764 87.0469L149.61 70.9789C151.248 70.0429 152.652 67.7029 152.652 65.7529V59.6689C152.652 57.7189 151.326 56.9389 149.61 57.9529L121.764 74.0209C120.126 74.9569 118.722 77.2969 118.722 79.2469V85.3309C118.722 87.2809 120.048 88.0609 121.764 87.0469Z" fill="black"/>
<path opacity="0.2" d="M172.541 134.393C172.541 136.343 173.867 137.123 175.583 136.109L203.429 120.041C205.067 119.105 206.471 116.765 206.471 114.815V108.731C206.471 106.781 205.145 106.001 203.429 107.015L175.583 123.083C173.945 124.019 172.541 126.359 172.541 128.309V134.393V134.393Z" fill="black"/>
<path opacity="0.2" d="M130.965 212.783L103.119 228.929C101.481 229.865 100.077 232.206 100.077 234.156V240.24C100.077 242.19 101.403 242.97 103.119 241.956L130.965 225.887C132.603 224.951 134.007 222.611 134.007 220.661V214.577C133.929 212.627 132.603 211.847 130.965 212.783Z" fill="black"/>
<path opacity="0.2" d="M242.428 13.8057C234.082 14.4297 225.814 15.5997 217.624 17.3937L211.774 20.7477C210.136 21.6837 208.732 24.0237 208.732 25.9737V32.0577C208.732 34.0077 210.058 34.7877 211.774 33.7737L239.62 17.7057C240.946 16.9257 242.038 15.3657 242.428 13.8057Z" fill="black"/>
<path opacity="0.2" d="M152.575 193.83V187.746C152.575 185.796 151.249 185.016 149.533 186.03L121.687 202.098C120.049 203.034 118.645 205.374 118.645 207.324V213.408C118.645 215.358 119.971 216.138 121.687 215.124L149.533 199.056C151.249 198.042 152.575 195.78 152.575 193.83Z" fill="black"/>
<path opacity="0.2" d="M188.846 236.964V230.88C188.846 228.93 187.52 228.15 185.804 229.164L157.958 245.232C156.32 246.168 154.916 248.508 154.916 250.458V256.542C154.916 258.492 156.242 259.272 157.958 258.258L185.804 242.19C187.442 241.176 188.846 238.914 188.846 236.964Z" fill="black"/>
<path opacity="0.2" d="M284.235 169.494L312.081 153.426C313.719 152.49 315.123 150.15 315.123 148.2V142.116C315.123 140.166 313.797 139.386 312.081 140.4L284.235 156.468C282.597 157.404 281.193 159.744 281.193 161.694V167.778C281.193 169.728 282.597 170.508 284.235 169.494Z" fill="black"/>
<path opacity="0.2" d="M302.88 174.72L330.726 158.652C332.364 157.716 333.768 155.376 333.768 153.426V147.342C333.768 145.392 332.442 144.612 330.726 145.626L302.88 161.694C301.242 162.63 299.838 164.97 299.838 166.92V173.004C299.838 174.876 301.242 175.656 302.88 174.72Z" fill="black"/>
<path opacity="0.2" d="M281.193 83.616V89.7C281.193 91.65 282.519 92.43 284.235 91.416L312.081 75.348C313.719 74.412 315.123 72.072 315.123 70.122V64.038C315.123 62.088 313.797 61.308 312.081 62.322L284.235 78.39C282.597 79.404 281.193 81.666 281.193 83.616Z" fill="black"/>
<path opacity="0.2" d="M300.071 25.7396C298.433 26.6756 297.029 29.0156 297.029 30.9656V37.0496C297.029 38.9996 298.355 39.7796 300.071 38.7656L322.145 25.9736C317.543 24.1796 312.785 22.5416 308.027 21.0596L300.071 25.7396Z" fill="black"/>
<path opacity="0.2" d="M294.456 56.3937L266.61 72.4617C264.972 73.3977 263.568 75.7377 263.568 77.6877V83.7717C263.568 85.7217 264.894 86.5017 266.61 85.4877L294.456 69.4197C296.094 68.4837 297.498 66.1437 297.498 64.1937V58.1097C297.498 56.2377 296.172 55.4577 294.456 56.3937Z" fill="black"/>
<path opacity="0.2" d="M333.69 83.3037C333.69 81.3537 332.364 80.5737 330.648 81.5877L302.802 97.6557C301.164 98.5917 299.76 100.932 299.76 102.882V108.966C299.76 110.916 301.086 111.696 302.802 110.682L330.648 94.6137C332.286 93.6777 333.69 91.3377 333.69 89.3877V83.3037Z" fill="black"/>
<path opacity="0.2" d="M403.187 103.896L375.341 119.964C373.703 120.9 372.299 123.24 372.299 125.19V131.274C372.299 133.224 373.625 134.004 375.341 132.99L403.187 116.922C404.825 115.986 406.229 113.646 406.229 111.696V105.612C406.151 103.662 404.825 102.882 403.187 103.896Z" fill="black"/>
<path opacity="0.2" d="M402.72 88.1396L392.892 93.8336C391.254 94.7696 389.85 97.1096 389.85 99.0596V105.144C389.85 107.094 391.176 107.874 392.892 106.86L409.116 97.4996C407.01 94.1456 404.904 91.0256 402.72 88.1396Z" fill="black"/>
<path opacity="0.2" d="M261.229 131.196V125.112C261.229 123.162 259.903 122.382 258.187 123.396L230.341 139.464C228.703 140.4 227.299 142.74 227.299 144.69V150.774C227.299 152.724 228.625 153.504 230.341 152.49L258.187 136.422C259.903 135.408 261.229 133.068 261.229 131.196Z" fill="black"/>
<path opacity="0.2" d="M366.917 60.7615L339.071 76.8295C337.433 77.7655 336.029 80.1055 336.029 82.0555V88.1395C336.029 90.0895 337.355 90.8695 339.071 89.8555L366.917 73.7875C368.555 72.8515 369.959 70.5115 369.959 68.5615V62.4775C369.959 60.5275 368.555 59.7475 366.917 60.7615Z" fill="black"/>
<path opacity="0.2" d="M239.62 182.208L211.774 198.276C210.136 199.212 208.732 201.552 208.732 203.502V209.586C208.732 211.536 210.058 212.316 211.774 211.302L239.62 195.234C241.258 194.298 242.662 191.958 242.662 190.008V183.924C242.662 181.974 241.258 181.194 239.62 182.208Z" fill="black"/>
<path opacity="0.2" d="M94.4628 298.661C96.1008 297.725 97.5048 295.386 97.5048 293.436V287.352C97.5048 285.402 96.1788 284.622 94.4628 285.636L81.5928 293.046C83.0748 296.556 84.7128 299.987 86.5068 303.263L94.4628 298.661Z" fill="black"/>
<path opacity="0.2" d="M353.658 119.964V126.048C353.658 127.998 354.984 128.778 356.7 127.764L384.546 111.696C386.184 110.76 387.588 108.42 387.588 106.47V100.386C387.588 98.4357 386.262 97.6557 384.546 98.6697L356.7 114.738C354.984 115.674 353.658 118.014 353.658 119.964Z" fill="black"/>
</g>
<path opacity="0.15" d="M193.21 315.355C192.898 315.199 192.586 315.043 192.274 314.887L192.43 314.809L137.83 284.935V264.811L125.506 271.909V292.033L176.128 319.723C176.206 321.127 177.22 322.453 179.014 323.545C182.914 325.807 189.232 325.807 193.21 323.545C195.16 322.453 196.174 320.893 196.174 319.411C196.174 318.007 195.16 316.525 193.21 315.355Z" fill="black"/>
<path opacity="0.15" d="M177.142 325.026C176.829 324.87 176.518 324.714 176.205 324.558L176.361 324.48L121.762 294.606V274.482L109.438 281.58V301.704L160.06 329.394C160.138 330.798 161.152 332.124 162.945 333.216C166.846 335.478 173.163 335.478 177.142 333.216C179.091 332.124 180.105 330.564 180.105 329.082C180.105 327.678 179.17 326.196 177.142 325.026Z" fill="black"/>
<path opacity="0.15" d="M363.017 360.595C358.415 357.709 352.565 355.213 345.623 353.185C337.745 350.923 328.463 349.285 321.833 346.555C313.175 343.045 309.275 337.819 309.041 331.969C308.885 328.693 310.289 324.793 317.309 321.361C319.103 320.503 321.287 319.645 323.783 319.099C327.371 318.397 330.647 318.631 333.299 319.021C347.417 321.127 354.125 326.587 359.507 331.969C364.967 337.429 370.973 340.159 381.737 344.449C386.339 346.321 391.253 348.037 395.621 349.909C395.621 349.909 395.699 349.909 395.699 349.987C397.883 350.923 400.301 351.781 402.095 352.951C404.981 354.745 407.555 356.617 408.803 358.879C410.051 361.141 409.973 363.715 407.633 366.445C407.009 367.147 406.229 367.927 404.747 368.551C403.499 369.097 401.861 369.487 400.301 369.799C397.103 370.345 393.905 370.501 391.253 370.423C388.523 370.267 386.261 369.877 384.077 369.409C374.717 367.459 368.477 364.027 363.017 360.595Z" fill="black"/>
<path d="M135.567 261.924L139.545 264.264L131.511 278.148L127.533 275.808C126.519 275.184 125.895 273.936 125.895 272.142C125.895 268.554 128.469 264.108 131.589 262.314C133.071 261.378 134.475 261.3 135.567 261.924Z" fill="#455A64"/>
<path d="M129.873 274.481C129.873 270.893 132.447 266.447 135.567 264.653C138.687 262.859 141.261 264.341 141.261 267.929C141.261 271.517 138.687 275.963 135.567 277.757C132.369 279.552 129.873 278.069 129.873 274.481Z" fill="#263238"/>
<g opacity="0.3">
<path opacity="0.3" d="M131.51 273.468C131.51 270.894 133.304 267.774 135.488 266.526C137.672 265.278 139.466 266.292 139.466 268.866C139.466 271.44 137.672 274.56 135.488 275.808C133.304 277.056 131.51 276.042 131.51 273.468Z" fill="black"/>
</g>
<g opacity="0.3">
<path opacity="0.3" d="M136.738 267.228C136.738 269.802 134.944 272.922 132.76 274.17C132.37 274.404 132.058 274.482 131.746 274.56C131.668 274.248 131.59 273.858 131.59 273.468C131.59 270.894 133.384 267.774 135.568 266.526C135.958 266.292 136.27 266.214 136.582 266.136C136.66 266.448 136.738 266.838 136.738 267.228Z" fill="black"/>
</g>
<path d="M132.681 276.119L179.715 303.341C180.183 303.575 180.417 304.043 180.417 304.589V308.489V320.657H191.805V306.695V303.107C191.805 299.441 189.855 296.087 186.735 294.293L138.375 266.369C137.673 265.979 136.659 265.979 135.567 266.681C133.383 267.929 131.589 271.049 131.589 273.623C131.511 274.793 131.979 275.651 132.681 276.119Z" fill="#455A64"/>
<path d="M191.804 303.576C191.804 302.796 191.726 301.938 191.492 301.236C191.57 301.548 191.648 303.732 187.514 305.136C182.99 306.618 180.494 305.136 180.494 305.136V309.036V320.658H191.882V307.242V303.576H191.804Z" fill="#37474F"/>
<g opacity="0.3">
<path opacity="0.3" d="M132.68 276.12L179.714 303.342C180.182 303.576 180.416 304.044 180.416 304.59V308.49V320.658H184.628V308.646V307.086C184.628 303.42 182.678 300.066 179.558 298.272L132.134 270.816C131.744 271.752 131.51 272.61 131.51 273.468C131.51 274.794 131.978 275.652 132.68 276.12Z" fill="black"/>
</g>
<path d="M194.144 314.183V318.785C194.144 319.955 193.364 321.203 191.804 322.061C188.684 323.855 183.536 323.855 180.416 322.061C178.856 321.125 178.076 319.955 178.076 318.785V314.105H180.494C180.494 314.651 180.728 315.275 181.274 315.743C181.352 315.821 181.43 315.899 181.43 315.899C181.664 316.055 181.82 316.211 182.132 316.367C184.316 317.693 187.982 317.693 190.166 316.367C190.4 316.211 190.634 316.055 190.868 315.899C190.946 315.821 191.024 315.743 191.024 315.743C191.57 315.275 191.804 314.651 191.804 314.105H194.144V314.183Z" fill="#263238"/>
<path d="M194.144 314.184C194.144 315.354 193.364 316.602 191.804 317.46C188.684 319.254 183.536 319.254 180.416 317.46C178.856 316.524 178.076 315.354 178.076 314.184C178.076 313.014 178.856 311.766 180.416 310.908V314.184C180.416 314.73 180.65 315.354 181.196 315.822C181.274 315.9 181.352 315.978 181.352 315.978C181.586 316.134 181.742 316.29 182.054 316.446C184.238 317.772 187.904 317.772 190.088 316.446C190.322 316.29 190.556 316.134 190.79 315.978C190.868 315.9 190.946 315.822 190.946 315.822C191.492 315.354 191.726 314.73 191.726 314.184V310.908C193.364 311.766 194.144 313.014 194.144 314.184Z" fill="#455A64"/>
<path d="M119.109 271.362L123.087 273.702L115.054 287.586L111.075 285.246C110.061 284.622 109.438 283.374 109.438 281.58C109.438 277.992 112.012 273.546 115.132 271.752C116.692 270.894 118.095 270.816 119.109 271.362Z" fill="#455A64"/>
<path d="M113.493 283.92C113.493 280.332 116.067 275.886 119.187 274.092C122.307 272.298 124.881 273.78 124.881 277.368C124.881 280.956 122.307 285.402 119.187 287.196C115.989 288.99 113.493 287.508 113.493 283.92Z" fill="#263238"/>
<g opacity="0.3">
<path opacity="0.3" d="M115.133 282.984C115.133 280.41 116.927 277.29 119.111 276.042C121.295 274.794 123.089 275.808 123.089 278.382C123.089 280.956 121.295 284.076 119.111 285.324C116.927 286.572 115.133 285.558 115.133 282.984Z" fill="black"/>
</g>
<g opacity="0.3">
<path opacity="0.3" d="M120.281 276.666C120.281 279.24 118.487 282.36 116.303 283.608C115.913 283.842 115.601 283.92 115.289 283.998C115.211 283.686 115.133 283.296 115.133 282.906C115.133 280.332 116.927 277.212 119.111 275.964C119.501 275.73 119.813 275.652 120.125 275.574C120.281 275.886 120.281 276.276 120.281 276.666Z" fill="black"/>
</g>
<path d="M116.302 285.558L163.336 312.78C163.804 313.014 164.038 313.482 164.038 314.028V317.928V329.55H175.426V316.134V312.546C175.426 308.88 173.476 305.526 170.356 303.732L121.996 275.808C121.294 275.418 120.28 275.418 119.188 276.12C117.004 277.368 115.21 280.488 115.21 283.062C115.132 284.232 115.6 285.168 116.302 285.558Z" fill="#455A64"/>
<path d="M175.425 312.546C175.425 311.766 175.347 310.908 175.113 310.206C175.191 310.518 175.269 312.702 171.135 314.106C166.611 315.588 164.115 314.106 164.115 314.106V318.006V329.628H175.503V316.212V312.546H175.425Z" fill="#37474F"/>
<g opacity="0.3">
<path opacity="0.3" d="M116.303 285.558L163.337 312.78C163.805 313.014 164.039 313.482 164.039 314.028V317.928V329.55H168.251V318.084V316.524C168.251 312.858 166.301 309.504 163.181 307.71L115.757 280.254C115.367 281.19 115.133 282.048 115.133 282.906C115.133 284.232 115.601 285.168 116.303 285.558Z" fill="black"/>
</g>
<path d="M177.767 323.622V328.224C177.767 329.394 176.987 330.642 175.427 331.5C172.307 333.294 167.159 333.294 164.039 331.5C162.479 330.564 161.699 329.394 161.699 328.224V323.544H164.117C164.117 324.09 164.351 324.714 164.897 325.182C164.975 325.26 165.053 325.338 165.053 325.338C165.287 325.494 165.443 325.65 165.755 325.806C167.939 327.132 171.605 327.132 173.789 325.806C174.023 325.65 174.257 325.494 174.491 325.338C174.569 325.26 174.647 325.182 174.647 325.182C175.193 324.714 175.427 324.09 175.427 323.544H177.767V323.622Z" fill="#263238"/>
<path d="M177.767 323.622C177.767 324.792 176.987 326.04 175.427 326.898C172.307 328.692 167.159 328.692 164.039 326.898C162.479 325.962 161.699 324.792 161.699 323.622C161.699 322.452 162.479 321.204 164.039 320.346V323.622C164.039 324.168 164.273 324.792 164.819 325.26C164.897 325.338 164.975 325.416 164.975 325.416C165.209 325.572 165.365 325.728 165.677 325.884C167.861 327.21 171.527 327.21 173.711 325.884C173.945 325.728 174.179 325.572 174.413 325.416C174.491 325.338 174.569 325.26 174.569 325.26C175.115 324.792 175.349 324.168 175.349 323.622V320.346C176.987 321.282 177.767 322.452 177.767 323.622Z" fill="#455A64"/>
<path d="M249.293 92.7414C249.293 68.5614 240.791 51.5574 227.063 43.6794C213.335 35.7234 194.381 36.8934 173.399 48.9834C131.591 73.1634 97.6611 131.975 97.6611 180.335C97.6611 204.515 106.163 221.519 119.891 229.397C133.619 237.353 152.573 236.183 173.555 224.093C215.363 199.913 249.293 141.101 249.293 92.7414Z" fill="#BA68C8"/>
<path opacity="0.95" d="M249.293 92.7414C249.293 68.5614 240.791 51.5574 227.063 43.6794C213.335 35.7234 194.381 36.8934 173.399 48.9834C131.591 73.1634 97.6611 131.975 97.6611 180.335C97.6611 204.515 106.163 221.519 119.891 229.397C133.619 237.353 152.573 236.183 173.555 224.093C215.363 199.913 249.293 141.101 249.293 92.7414Z" fill="white"/>
<g opacity="0.2">
<path opacity="0.2" d="M130.966 212.783L112.324 223.547C114.586 225.809 117.16 227.759 119.89 229.397C120.748 229.865 121.606 230.333 122.464 230.723L130.966 225.809C132.604 224.873 134.008 222.533 134.008 220.583V214.499C133.93 212.627 132.604 211.847 130.966 212.783Z" fill="#BA68C8"/>
<path opacity="0.2" d="M172.539 102.414C172.539 104.364 173.865 105.144 175.581 104.13L203.427 88.0619C205.065 87.1259 206.469 84.7859 206.469 82.8359V76.7519C206.469 74.8019 205.143 74.0219 203.427 75.0359L175.581 91.1039C173.943 92.0399 172.539 94.3799 172.539 96.3299V102.414Z" fill="#BA68C8"/>
<path opacity="0.2" d="M203.427 107.016L175.581 123.084C173.943 124.02 172.539 126.36 172.539 128.31V134.394C172.539 136.344 173.865 137.124 175.581 136.11L203.427 120.042C205.065 119.106 206.469 116.766 206.469 114.816V108.732C206.391 106.86 205.065 106.08 203.427 107.016Z" fill="#BA68C8"/>
<path opacity="0.2" d="M152.574 65.8317V64.4277C148.674 67.9377 144.93 71.7597 141.264 75.8157L149.532 71.0577C151.248 70.0437 152.574 67.7037 152.574 65.8317Z" fill="#BA68C8"/>
<path opacity="0.2" d="M221.524 176.514L194.224 192.27C192.586 193.206 191.182 195.546 191.182 197.496V203.58C191.182 205.53 192.508 206.31 194.224 205.296L202.804 200.304C209.59 193.206 215.908 185.094 221.524 176.514Z" fill="#BA68C8"/>
<path opacity="0.2" d="M230.417 139.463C228.779 140.399 227.375 142.739 227.375 144.689V150.773C227.375 152.723 228.701 153.503 230.417 152.489L236.423 148.979C238.841 143.519 240.947 137.903 242.663 132.365L230.417 139.463Z" fill="#BA68C8"/>
<path opacity="0.2" d="M152.572 193.83V187.746C152.572 185.796 151.246 185.016 149.53 186.03L121.684 202.098C120.046 203.034 118.642 205.374 118.642 207.324V213.408C118.642 215.358 119.968 216.138 121.684 215.124L149.53 199.056C151.246 198.042 152.572 195.78 152.572 193.83Z" fill="#BA68C8"/>
<path opacity="0.2" d="M167.159 127.92L139.313 143.988C137.675 144.924 136.271 147.264 136.271 149.214V155.298C136.271 157.248 137.597 158.028 139.313 157.014L167.159 140.946C168.797 140.01 170.201 137.67 170.201 135.72V129.636C170.201 127.764 168.797 126.984 167.159 127.92Z" fill="#BA68C8"/>
</g>
<path opacity="0.2" d="M297.731 207.947L147.971 233.765C137.285 235.481 127.769 233.921 119.891 229.397C106.163 221.441 97.6611 204.515 97.6611 180.335C97.6611 131.975 131.591 73.1634 173.477 48.9834C194.459 36.8934 213.413 35.7234 227.141 43.6794C235.019 48.2034 241.103 55.6914 244.925 65.8314L297.731 207.947Z" fill="#9E58AA"/>
<path opacity="0.2" d="M297.731 207.947L147.971 233.765C137.285 235.481 127.769 233.921 119.891 229.397C106.163 221.441 97.6611 204.515 97.6611 180.335C97.6611 131.975 131.591 73.1634 173.477 48.9834C194.459 36.8934 213.413 35.7234 227.141 43.6794C235.019 48.2034 241.103 55.6914 244.925 65.8314L297.731 207.947Z" fill="#BA68C8"/>
<path d="M398.662 203.737L391.096 185.719C387.43 176.437 388.834 163.879 388.834 163.879C393.202 163.801 397.336 165.283 400.144 170.431C402.952 175.579 408.568 193.831 409.894 197.809C411.22 202.255 411.532 203.971 411.766 208.417C412 213.019 410.83 221.443 410.518 225.967C410.362 228.073 410.362 230.101 410.44 232.207C410.44 234.469 409.894 236.575 409.582 238.759C409.426 239.773 408.958 240.787 408.256 241.567C407.866 242.113 407.164 242.269 406.774 242.737C406.384 243.283 406.384 243.985 405.76 244.375C405.058 244.843 404.2 244.843 403.654 245.311C403.03 245.857 402.562 246.481 401.938 246.949C401.314 247.339 400.846 247.573 400.456 248.197C400.144 248.743 399.91 249.835 399.13 249.913C398.272 249.991 397.96 249.211 397.804 248.509C397.492 247.261 397.882 245.545 398.428 244.453C399.052 243.127 399.442 241.723 400.222 240.475C400.924 239.383 401.236 237.901 401.392 236.575C401.47 235.639 401.236 234.547 400.144 235.249C398.896 236.107 397.726 237.667 396.088 237.667C394.918 237.667 394.684 236.809 395.23 235.951C396.088 234.547 396.79 233.143 397.414 231.583C398.038 230.023 398.506 228.463 399.208 226.903C399.598 226.123 399.988 225.343 400.456 224.641C401.782 222.535 401.236 220.195 401.002 217.855C400.612 214.813 399.364 207.793 398.662 203.737Z" fill="#FFA8A7"/>
<path d="M388.055 163.177C394.217 163.645 397.649 164.893 400.925 170.977C404.201 177.061 408.647 191.725 409.583 194.689C410.519 197.731 411.533 201.163 411.845 205.921C412.157 209.587 411.923 212.551 411.923 212.551C411.923 212.551 411.065 214.189 406.151 214.189C401.237 214.189 399.755 213.331 399.755 213.331L398.195 203.893L388.055 181.507V163.177Z" fill="#C177CE"/>
<path d="M316.059 328.459C315.591 328.225 315.123 329.473 315.279 330.175C315.669 332.203 317.619 334.933 321.051 336.961C324.561 338.989 332.205 340.393 334.389 341.017C336.651 341.641 340.083 343.981 342.189 345.073C346.011 347.023 349.131 346.789 350.847 345.931C351.549 345.619 351.783 344.839 352.017 344.215C352.485 342.655 352.407 342.343 352.251 342.265L316.059 328.459Z" fill="#263238"/>
<path d="M353.345 337.742C353.189 339.38 352.643 341.954 351.941 343.358C351.083 344.372 349.679 344.606 348.587 344.606C345.701 344.606 343.127 343.592 340.475 342.032C338.837 341.096 337.121 340.082 334.937 339.536C332.597 338.912 327.371 337.82 325.109 337.118C323.159 336.494 320.741 335.324 319.259 333.92C317.933 332.75 316.139 330.41 316.061 329.084C316.451 326.198 317.231 324.638 319.181 324.17C321.209 323.702 323.627 324.326 327.059 325.106C328.073 325.34 329.321 325.73 329.867 325.808C331.973 326.198 333.845 326.666 335.405 327.056C336.731 327.368 338.057 327.68 339.383 327.446C340.007 327.29 340.553 327.134 341.021 326.666C341.567 326.042 341.879 325.028 342.503 325.184C342.503 325.184 353.189 330.8 354.125 331.19C354.983 331.58 353.813 332.828 353.345 337.742Z" fill="#37474F"/>
<path d="M315.902 329.005C316.058 326.977 316.76 324.325 319.178 324.013C322.766 323.545 326.276 325.027 329.708 325.807L325.574 324.871C320.738 323.779 316.604 322.687 315.902 329.005Z" fill="white"/>
<path d="M328.852 325.339C328.462 325.417 327.994 325.807 327.682 326.041C327.292 326.431 326.98 326.743 326.746 327.211C326.434 327.757 327.058 328.069 327.604 327.523C327.916 327.133 328.306 326.665 328.93 326.197C329.242 325.963 329.788 325.729 330.178 325.807C330.412 325.885 330.802 325.963 330.802 325.963C330.646 325.495 329.398 325.183 328.852 325.339Z" fill="#FAFAFA"/>
<path d="M334.152 326.431C333.762 326.275 333.372 326.275 332.982 326.431C332.514 326.587 332.124 326.977 331.812 327.367C331.578 327.679 330.954 328.537 330.798 328.927C330.642 329.317 331.5 329.551 331.734 329.161C331.968 328.771 332.358 328.147 332.67 327.757C332.826 327.523 333.606 326.665 334.23 326.821L334.542 326.899C334.62 326.743 334.464 326.665 334.308 326.587C334.23 326.509 334.23 326.431 334.152 326.431Z" fill="#FAFAFA"/>
<path d="M337.195 327.289C336.883 327.289 336.649 327.289 336.415 327.445C336.181 327.601 335.869 327.913 335.635 328.225C335.167 328.927 335.011 329.317 334.777 329.941C334.621 330.409 335.557 330.565 335.635 330.253C336.025 329.239 336.259 328.615 336.961 328.069C337.585 327.601 337.975 327.523 337.975 327.523C337.975 327.445 337.819 327.367 337.741 327.367C337.663 327.367 337.273 327.289 337.195 327.289Z" fill="#FAFAFA"/>
<path d="M358.18 319.255C358.18 319.255 354.826 329.473 353.812 331.813C353.5 332.593 351.94 332.359 351.082 332.515C350.224 332.593 348.898 332.749 348.04 333.139C345.544 334.387 343.906 334.387 343.906 330.721C343.906 329.941 343.516 329.551 342.658 329.395C341.956 329.317 341.176 329.395 340.63 329.005C340.552 328.927 340.63 328.771 340.786 328.693C341.566 328.069 341.956 327.679 342.346 326.275C343.36 321.907 343.906 318.163 345.076 312.781L358.18 319.255Z" fill="#FFA8A7"/>
<path d="M366.289 218.245C366.289 218.245 361.141 224.407 358.021 235.951C354.277 249.913 352.795 260.677 351.625 268.477C350.845 273.391 350.377 276.901 348.973 285.793C347.881 293.203 342.967 320.893 342.967 320.893C342.967 320.893 346.555 324.013 349.597 325.105C352.405 326.197 354.979 326.587 355.993 326.197C355.993 326.197 359.425 317.305 363.715 305.683C366.367 298.351 367.927 293.125 368.629 289.303C369.175 286.417 369.019 281.347 369.019 278.695L392.029 243.205C392.029 243.205 394.291 240.787 396.319 235.795C399.361 228.229 395.461 217.309 395.461 217.309L366.289 218.245Z" fill="#263238"/>
<path d="M358.021 235.872C354.355 249.6 352.405 264.264 350.299 278.304C348.193 292.11 345.463 307.086 342.967 320.814C345.151 307.008 347.881 292.032 349.909 278.226C352.093 264.264 354.121 249.522 358.021 235.872Z" fill="white"/>
<path d="M388.91 228.229H360.674C359.738 230.413 358.802 232.987 358.022 235.951C354.668 248.431 353.108 258.337 352.016 265.903C352.718 270.505 353.498 275.263 354.2 278.539C356.072 287.119 357.242 293.203 358.802 296.791C360.284 300.301 363.872 305.371 363.95 305.371C366.524 298.273 368.006 293.047 368.786 289.303C369.332 286.417 369.176 281.347 369.176 278.695L385.868 252.877L387.038 244.921C391.328 237.979 390.86 232.753 388.91 228.229Z" fill="#17212F"/>
<path d="M398.819 335.323C397.337 332.983 396.557 328.537 393.359 319.489L380.957 329.629L388.289 341.329C388.679 341.953 388.679 342.967 388.835 343.201C390.395 345.463 398.819 335.323 398.819 335.323Z" fill="#FFA8A7"/>
<path d="M403.186 340.237C403.186 340.081 403.264 338.989 403.186 338.911C402.874 337.741 402.172 337.429 401.236 336.727C400.066 335.947 398.974 334.933 398.662 334.543C398.35 334.075 398.272 333.919 397.804 333.685C396.946 333.373 395.62 333.295 393.982 334.153C391.33 335.557 390.472 337.273 390.628 339.067C390.784 340.471 390.862 342.343 389.614 343.201C389.068 343.513 388.288 341.329 388.288 341.329C387.508 342.577 388.6 344.371 389.146 346.945C389.536 348.739 389.458 349.519 389.224 351.313C388.99 353.575 388.6 353.575 387.43 353.731C386.416 353.887 383.452 353.653 381.658 354.901C379.162 356.617 379.864 358.957 379.864 358.957C380.176 359.815 382.906 364.105 392.656 362.467C395.542 361.999 401.47 357.553 401.392 357.085C401.314 356.695 401.392 356.227 401.392 355.837C401.392 354.823 401.47 353.809 401.548 352.795C401.626 351.859 401.47 350.845 401.704 349.909C401.938 349.129 402.016 348.349 402.094 347.569C402.25 345.541 402.484 343.513 402.64 341.485C402.718 340.939 403.264 340.861 403.186 340.237Z" fill="#37474F"/>
<path d="M404.435 339.847C405.371 340.783 404.825 343.513 403.499 346.789C402.953 348.271 401.861 350.767 402.173 353.341C402.485 355.993 402.563 357.241 401.861 358.489C400.769 360.439 395.075 362.935 391.721 363.715C391.721 363.715 394.841 359.815 395.153 353.965C395.465 348.115 395.933 344.371 398.585 341.719C401.939 338.521 404.435 339.847 404.435 339.847Z" fill="#17212F"/>
<path d="M379.866 358.957C379.866 358.957 381.816 362.623 389.46 362.545C392.424 362.467 394.062 361.063 394.14 356.461C394.218 351.001 394.686 345.463 396.402 342.733C398.196 340.003 401.004 338.677 403.188 338.911C403.578 338.989 404.046 339.301 404.436 339.847C404.436 339.847 402.252 339.145 398.82 341.953C396.324 344.059 395.622 348.427 395.7 353.809C395.7 356.149 395.856 358.801 395.154 360.517C394.53 362.155 393.126 363.247 391.566 363.715C387.432 364.885 381.816 362.935 380.334 361.219C379.476 360.127 379.866 358.957 379.866 358.957Z" fill="#263238"/>
<path d="M388.989 352.717C388.989 352.717 388.443 353.107 388.365 353.653C388.287 354.199 388.521 355.369 389.535 355.993C390.003 356.305 390.393 356.149 389.691 355.213C388.989 354.277 388.989 352.717 388.989 352.717Z" fill="#FAFAFA"/>
<path d="M389.38 349.909C389.38 349.909 389.146 350.065 389.068 350.845C389.068 351.235 389.692 352.873 390.472 353.263C391.252 353.653 390.862 352.717 390.472 352.249C390.16 351.781 389.458 350.689 389.38 349.909Z" fill="#FAFAFA"/>
<path d="M389.145 346.789C389.145 346.789 388.911 346.867 389.145 347.881C389.223 348.271 390.315 349.285 390.783 349.363C391.329 349.441 391.563 349.129 390.939 348.739C390.471 348.349 389.223 347.257 389.145 346.789Z" fill="#FAFAFA"/>
<path d="M384.153 218.245C385.479 219.649 388.833 224.251 389.379 231.349C389.613 234.313 388.755 240.007 385.245 244.297C384.153 260.053 383.139 289.693 383.139 289.693C386.805 294.841 387.741 298.117 390.081 305.839C391.563 310.519 396.633 329.005 396.633 329.005C389.223 330.097 384.777 336.649 384.777 336.649C384.777 336.649 374.559 320.113 367.695 308.647C362.703 300.223 360.987 296.635 359.349 291.877C357.789 287.509 356.697 282.205 355.215 271.987C353.733 261.769 352.251 248.275 351.549 238.213C350.847 228.151 351.237 217.621 351.237 217.621L384.153 218.245Z" fill="#263238"/>
<path d="M384.777 336.492C381.267 330.876 374.247 319.645 370.815 313.951C366.291 306.385 361.299 298.896 358.725 290.394C356.619 281.814 355.137 273.079 354.045 264.343C352.953 255.607 352.095 246.793 351.471 237.979C351.861 242.347 352.251 246.793 352.719 251.161C354.123 264.343 355.839 277.525 359.115 290.317C361.689 298.741 366.603 306.228 371.049 313.794C371.049 313.872 384.777 336.492 384.777 336.492Z" fill="white"/>
<path d="M397.491 230.569C396.477 230.257 394.995 229.321 394.449 228.463C394.137 227.917 393.903 227.215 393.669 226.201C393.357 225.187 393.045 223.861 392.421 222.457L391.641 222.769C392.265 224.173 392.577 225.343 392.889 226.435C393.123 227.449 393.357 228.229 393.747 228.931C394.371 229.945 396.087 231.115 397.413 231.505C397.413 231.115 397.413 230.803 397.491 230.569Z" fill="#17212F"/>
<path d="M377.288 239.539C377.522 239.539 377.678 239.539 377.834 239.461C379.082 239.227 380.018 238.369 381.968 235.951C383.45 234.079 383.294 232.753 383.06 230.569C382.982 229.789 382.124 225.421 382.046 224.251L381.266 224.719C381.344 225.889 382.124 229.867 382.202 230.647C382.436 232.831 382.592 233.845 381.344 235.405C379.55 237.667 378.77 238.447 377.756 238.681C376.82 238.915 372.452 238.213 371.282 237.355C370.58 236.887 369.488 231.193 368.864 226.201L368.006 226.279C368.318 228.775 369.488 237.121 370.814 237.979C371.828 238.915 375.572 239.617 377.288 239.539Z" fill="#17212F"/>
<path d="M369.021 158.575L370.581 169.963L386.025 169.183L384.387 156.859L369.021 158.575Z" fill="#FFA8A7"/>
<path d="M362.858 137.28C361.688 138.762 358.022 142.896 357.398 143.988L360.83 146.094L362.858 137.28Z" fill="#F28F8F"/>
<path d="M362.858 137.28C361.298 139.698 359.27 141.804 357.398 143.988C358.88 141.492 360.908 139.386 362.858 137.28Z" fill="white"/>
<path d="M371.439 125.892C366.681 125.346 363.561 128.778 362.157 138.918C362.079 139.308 361.533 139.932 361.065 141.492C359.115 148.044 360.207 154.206 361.299 155.844C364.029 158.106 367.149 158.886 371.595 158.496C375.027 158.184 383.685 157.17 388.053 152.568C393.201 147.186 395.853 139.074 392.187 134.862C387.039 128.934 374.091 126.126 371.439 125.892Z" fill="#FFA8A7"/>
<path d="M371.439 125.893C364.263 125.269 363.249 134.083 362.235 139.309C360.285 143.053 359.973 147.499 360.285 151.633C360.441 153.115 360.675 154.597 361.377 155.845C360.597 154.597 360.363 153.037 360.129 151.633C359.661 147.421 359.973 142.897 361.923 139.153C362.859 133.849 364.263 124.879 371.439 125.893Z" fill="white"/>
<path d="M361.377 155.845C362.001 156.781 366.369 158.965 369.099 159.199L368.865 157.093C368.865 157.015 365.121 157.015 361.377 155.845Z" fill="#F28F8F"/>
<path d="M370.503 143.677C370.815 144.457 371.595 144.535 372.063 143.911C372.609 143.209 373.077 142.429 373.779 141.883C374.637 141.259 375.651 140.791 376.743 140.869C380.721 141.181 379.785 146.485 377.835 148.279C374.637 151.321 372.921 148.669 372.921 148.669C372.921 148.669 370.581 153.739 374.013 156.781C374.013 156.781 379.863 159.277 384.387 157.873C387.819 154.207 390.081 151.867 392.421 148.669C397.881 141.181 397.881 133.771 394.371 131.587C394.605 128.935 393.123 124.957 387.663 122.617C382.437 120.433 378.927 120.667 375.183 120.823C371.439 121.057 366.759 122.773 363.249 119.809C362.391 121.915 362.625 124.411 363.795 126.361C362.703 125.893 361.221 126.361 360.675 127.531C360.129 128.623 360.675 130.105 361.767 130.651C360.987 131.041 360.675 132.055 360.909 132.835C361.221 133.615 362.001 134.239 362.859 134.317C363.795 134.395 364.341 134.317 365.199 134.161C366.291 137.203 369.801 138.295 371.829 138.217C371.751 138.217 371.517 138.607 371.439 138.685C371.283 138.841 371.205 138.997 371.127 139.231C370.893 139.621 370.737 140.011 370.659 140.401C370.425 141.181 370.269 142.039 370.347 142.897C370.425 143.131 370.425 143.443 370.503 143.677Z" fill="#455A64"/>
<path d="M363.248 119.965C362.39 122.071 362.624 124.567 363.872 126.439L364.028 126.673L363.794 126.595C361.064 125.581 359.27 129.247 361.844 130.729L362 130.807L361.844 130.885C359.894 132.133 361.298 134.629 363.404 134.473C364.028 134.473 364.652 134.395 365.276 134.317C364.34 134.473 363.404 134.629 362.468 134.473C360.752 134.083 360.128 131.665 361.766 130.807V130.963C359.036 129.325 360.908 125.425 363.872 126.595L363.794 126.673C362.546 124.567 362.312 122.071 363.248 119.965Z" fill="white"/>
<path d="M392.342 164.893C396.32 167.155 399.362 174.643 399.128 180.883C398.972 184.861 397.568 195.079 396.398 204.049C396.008 206.857 397.178 211.693 397.646 217.465C398.036 221.755 398.114 226.279 398.114 226.279C398.114 226.279 392.732 232.909 377.99 233.767C359.192 234.859 350.846 230.335 350.846 230.335C350.846 230.335 350.768 214.969 351.158 202.879C351.86 184.861 351.86 179.635 354.668 173.473C355.604 171.679 356.54 167.623 359.66 166.843C362.078 166.219 367.694 164.893 369.878 164.503C373.544 165.439 382.982 165.517 385.322 163.489V162.943C389.3 163.021 389.846 163.489 392.342 164.893Z" fill="#C177CE"/>
<path d="M291.49 210.991C292.114 211.147 292.894 210.835 293.83 210.055C295.546 208.573 297.028 205.765 297.34 203.581C297.496 202.411 297.34 201.553 296.872 201.085C296.56 200.773 293.596 197.965 293.206 197.575C292.426 196.873 290.944 196.561 289.54 197.263C286.42 198.901 283.924 203.503 284.314 207.013C284.392 208.495 291.1 210.835 291.49 210.991Z" fill="#455A64"/>
<path d="M297.106 203.19C297.106 201.942 296.638 201.084 295.858 200.694C295.078 200.304 294.142 200.382 293.128 201.084C291.022 202.41 289.384 205.452 289.462 207.948C289.462 209.196 289.93 210.054 290.71 210.444C291.412 210.834 292.426 210.756 293.44 210.054C295.546 208.728 297.184 205.608 297.106 203.19Z" fill="#263238"/>
<path d="M316.448 221.677C316.916 221.911 317.462 221.833 318.086 221.443C319.334 220.663 320.27 218.869 320.27 217.465C320.27 216.763 319.958 216.217 319.568 215.983C319.334 215.827 296.48 202.801 296.09 202.567C295.466 202.255 294.686 202.177 293.828 202.645C292.112 203.503 290.942 205.687 291.176 207.559C291.332 208.495 291.722 209.119 292.346 209.431C292.736 209.587 316.136 221.521 316.448 221.677Z" fill="#455A64"/>
<path d="M320.192 217.465C320.192 216.763 319.88 216.217 319.49 215.983C319.1 215.749 318.476 215.749 317.852 216.139C316.604 216.919 315.59 218.713 315.668 220.195C315.668 220.897 315.98 221.443 316.448 221.677C316.916 221.911 317.462 221.833 318.086 221.443C319.256 220.663 320.27 218.947 320.192 217.465Z" fill="#263238"/>
<path d="M345.933 214.031C348.039 213.329 349.599 210.833 352.641 204.515C356.463 196.637 358.491 194.843 361.299 186.809C363.639 180.881 360.519 170.039 359.115 167.777C354.357 169.493 351.081 171.053 347.805 177.683C344.919 183.689 339.147 195.779 336.573 201.083C336.573 201.083 321.285 204.359 317.151 204.671C315.591 204.749 313.953 204.515 312.549 203.813C311.691 203.345 310.755 203.189 309.741 203.189C309.351 203.189 308.961 203.189 308.649 203.345C307.947 203.579 307.479 204.203 306.933 204.671C305.997 205.607 304.749 206.231 303.735 207.011C302.487 207.947 301.005 208.571 299.757 209.507C298.665 210.287 297.495 210.989 296.793 212.159C296.715 212.393 296.559 212.549 296.559 212.783C296.481 213.173 296.637 213.563 296.949 213.875C297.183 214.187 297.573 214.343 297.963 214.499C298.509 214.655 299.055 214.733 299.523 215.045C299.991 215.435 300.069 216.137 300.537 216.605C301.239 217.307 302.409 217.151 303.267 217.775C303.891 218.243 304.281 219.023 304.905 219.335C305.295 219.491 305.685 219.569 306.075 219.647C306.777 219.725 307.479 219.959 308.181 219.959C309.039 219.959 309.429 219.569 310.131 219.179C312.549 217.853 313.875 216.137 318.243 215.903C321.051 215.591 343.749 214.733 345.933 214.031Z" fill="#FFA8A7"/>
<path d="M359.508 166.842C354.36 168.09 351.24 169.962 347.886 176.202C344.766 181.974 336.186 200.46 336.186 200.46L327.606 202.878C327.606 202.878 325.422 205.608 326.28 209.82C327.06 213.798 328.854 215.592 328.854 215.592C328.854 215.592 333.222 215.436 340.71 215.202C348.042 214.968 348.744 213.252 350.382 209.976C352.02 206.7 362.082 187.122 362.082 187.122C362.082 187.122 366.138 172.692 359.508 166.842Z" fill="#C177CE"/>
<path d="M369.879 164.502C366.369 165.126 362.937 166.062 359.583 166.92C357.399 167.388 354.435 168.48 352.563 170.196C349.287 173.16 347.493 177.372 345.543 181.272C342.423 187.59 339.537 194.064 336.495 200.46V200.538H336.417L327.837 202.956C323.703 203.58 319.257 204.984 315.045 204.594C313.563 204.438 312.393 203.502 310.989 203.268C310.287 203.19 309.585 203.112 308.883 203.268C308.181 203.424 307.713 203.97 307.167 204.516C304.983 206.466 302.409 207.792 299.991 209.274C298.821 210.132 297.495 210.834 296.793 212.082C297.495 210.834 298.821 210.054 299.991 209.196C302.331 207.636 304.905 206.232 307.011 204.36C307.479 203.892 308.025 203.268 308.805 203.112C309.507 202.956 310.287 202.956 310.989 203.112C312.393 203.346 313.563 204.282 315.045 204.438C319.257 204.828 323.547 203.424 327.759 202.722C327.681 202.722 336.261 200.304 336.261 200.304L336.183 200.382C339.147 193.986 342.189 187.59 345.309 181.194C347.337 177.294 349.131 173.082 352.485 170.118C354.513 168.402 357.165 167.232 359.739 166.842C362.625 165.984 366.525 165.126 369.879 164.502Z" fill="white"/>
<path opacity="0.3" d="M356.231 278.461C352.643 291.721 350.069 305.293 348.431 318.943C347.885 323.389 347.261 328.303 343.829 331.111C341.177 333.295 337.589 333.685 334.157 333.919C327.761 334.387 320.897 334.387 315.515 331.111C316.217 332.983 318.089 335.245 321.053 337.039C324.563 339.067 332.207 340.471 334.469 341.095C336.731 341.719 340.163 344.059 342.269 345.151C346.091 347.101 349.211 346.867 350.927 346.009C351.629 345.697 351.863 344.917 352.097 344.293C352.565 342.733 352.487 342.421 352.331 342.343C352.799 340.861 353.189 338.989 353.345 337.741C353.813 333.061 354.905 331.657 354.047 331.189C354.515 330.097 355.139 328.147 355.841 326.197C355.919 326.197 355.997 326.197 356.075 326.119C356.075 326.119 359.507 317.227 363.797 305.605C364.109 304.825 364.343 304.045 364.655 303.343C361.769 298.351 360.287 295.465 359.351 291.643C358.337 288.055 357.323 284.389 356.231 278.461ZM411.923 205.921C411.533 201.085 410.597 197.653 409.583 194.689C408.647 191.647 404.201 176.983 400.925 170.977C397.649 164.971 394.217 163.645 387.977 163.177C387.275 163.099 386.339 163.021 385.169 163.099C385.169 163.099 385.169 163.411 385.169 163.567L384.389 157.873C387.743 154.285 390.005 151.945 392.267 148.825C397.727 141.337 397.727 133.927 394.217 131.743C394.451 129.091 392.969 125.035 387.509 122.773C385.481 121.915 383.687 121.447 382.049 121.135C380.177 121.369 378.383 121.759 376.667 122.305C374.249 123.085 371.831 124.255 370.271 126.283C368.945 128.077 368.399 130.261 367.853 132.445C366.137 139.387 364.499 146.407 365.045 153.583C365.123 154.831 365.279 156.001 365.903 157.093C366.449 158.029 367.697 158.965 368.945 159.199C368.945 159.199 372.299 159.433 374.015 159.433C374.249 160.837 374.561 163.021 374.795 164.425C374.873 164.893 374.951 165.439 374.717 165.829C374.405 166.375 373.781 166.687 373.157 166.843C367.073 168.481 359.975 168.637 355.685 173.317C354.047 175.033 353.111 177.217 352.097 179.401C349.835 184.315 347.651 189.229 345.389 194.143C343.907 197.341 342.347 200.695 339.617 202.879C334.625 206.779 327.449 205.765 321.287 207.247C316.841 208.339 312.863 210.835 308.417 212.083C307.403 212.395 306.389 212.629 305.375 212.863C304.283 213.097 303.191 212.941 302.099 213.175C301.319 213.253 300.461 213.877 300.383 214.735C300.383 215.047 300.461 215.671 300.617 215.983C300.773 216.295 301.007 216.841 301.631 217.309C302.099 217.465 302.567 217.543 302.957 217.855C303.581 218.323 303.971 219.103 304.595 219.415C304.985 219.571 305.375 219.649 305.765 219.727C306.467 219.805 307.169 220.039 307.949 220.039C308.807 220.039 309.197 219.649 309.899 219.259C310.055 219.181 310.289 219.025 310.445 218.947C312.551 217.699 314.033 216.217 318.011 215.983C318.167 215.983 318.479 215.983 318.869 215.905C320.663 215.827 324.407 215.671 328.541 215.437C328.697 215.671 328.853 215.749 328.853 215.749C328.853 215.749 333.221 215.671 340.709 215.359C348.041 215.125 348.665 213.409 350.381 210.133C350.537 209.899 350.693 209.587 350.849 209.119C353.267 204.439 357.479 196.093 358.883 193.363C358.883 193.363 358.337 215.983 358.415 225.811C358.493 244.141 361.379 262.315 364.265 280.333C364.967 284.779 366.839 288.991 368.477 293.281C370.193 297.961 372.065 302.641 373.937 307.243C377.759 316.291 382.049 325.183 387.353 333.529C388.523 335.323 389.693 337.117 390.473 339.145C391.487 341.953 391.409 344.995 391.331 347.959C391.253 350.377 391.175 352.873 390.239 355.213C388.679 359.347 383.219 359.815 379.865 357.319C379.553 358.333 379.787 359.113 379.787 359.113C379.787 359.113 379.397 360.283 380.177 361.453C381.581 363.169 387.275 365.119 391.409 363.949C391.487 363.949 391.565 363.871 391.643 363.871C394.997 363.091 400.691 360.595 401.783 358.645C402.485 357.397 402.407 356.149 402.095 353.497C401.783 350.845 402.875 348.349 403.421 346.867C404.747 343.591 405.293 340.861 404.357 339.925C403.967 339.379 403.499 339.067 403.109 338.989C402.797 337.819 402.095 337.507 401.159 336.805C399.989 335.947 398.897 335.011 398.585 334.621C398.351 334.309 398.273 334.075 397.961 333.919C397.493 332.749 396.947 331.111 396.323 329.083C396.401 329.083 396.479 329.083 396.557 329.005C396.557 329.005 391.487 310.519 390.005 305.839C387.587 298.195 386.651 294.841 382.985 289.693C382.985 289.693 383.687 270.505 384.467 254.749L391.955 243.205C391.955 243.205 393.671 241.411 395.465 237.589C395.465 237.667 395.387 237.667 395.387 237.745C395.543 237.745 395.699 237.823 395.855 237.823C397.493 237.823 398.663 236.263 399.911 235.405C400.223 235.171 400.457 235.171 400.691 235.249C400.691 235.249 400.769 235.249 400.769 235.171C402.095 234.547 402.173 237.511 402.173 238.135C402.095 239.617 401.627 241.099 401.081 242.503C400.145 244.765 398.975 247.105 399.131 249.601C399.131 249.757 399.131 249.913 399.209 250.069C399.755 249.835 399.989 248.899 400.223 248.431C400.613 247.807 401.081 247.573 401.705 247.183C402.407 246.715 402.875 246.013 403.421 245.545C403.967 245.077 404.903 245.155 405.527 244.609C406.151 244.141 406.073 243.439 406.541 242.971C406.931 242.503 407.633 242.269 408.023 241.801C408.647 241.021 409.193 240.007 409.349 238.993C409.661 236.809 410.207 234.625 410.207 232.441C410.207 230.335 410.207 228.307 410.363 226.201C410.597 222.925 411.221 217.543 411.533 213.175C411.767 212.941 411.845 212.785 411.845 212.785C411.845 212.785 412.157 209.665 411.923 205.921ZM403.577 223.159C403.109 224.797 401.861 226.123 400.847 227.527C398.897 230.335 398.039 233.923 396.011 236.653C396.167 236.341 396.245 236.029 396.401 235.717C397.493 232.987 397.649 229.789 397.493 226.903C397.883 226.513 398.117 226.279 398.117 226.279C398.117 226.279 398.039 221.755 397.649 217.465C397.103 211.693 396.011 206.857 396.401 204.049C396.869 200.695 397.337 197.107 397.727 193.753C398.897 196.171 399.989 198.589 400.847 201.085C402.953 207.247 403.499 213.721 403.811 220.117C403.811 221.209 403.889 222.223 403.577 223.159Z" fill="black"/>
<path d="M129.816 169.894C129.622 170.089 129.427 170.089 129.233 169.894C129.038 169.894 129.038 169.7 129.038 169.7L123.784 162.11V172.619C123.784 172.813 123.784 173.008 123.589 173.202C123.395 173.397 123.395 173.592 123.2 173.592L121.643 174.565C121.449 174.565 121.449 174.565 121.254 174.565C121.06 174.565 121.06 174.37 121.06 174.175V157.829C121.06 157.635 121.06 157.44 121.254 157.245C121.449 157.051 121.449 156.856 121.643 156.856L123.006 156.078C123.2 155.883 123.395 155.883 123.589 156.078C123.784 156.078 123.784 156.272 123.784 156.272L129.038 163.862V153.159C129.038 152.964 129.038 152.77 129.233 152.575C129.427 152.38 129.427 152.186 129.622 152.186L131.179 151.213C131.373 151.213 131.373 151.213 131.568 151.213C131.762 151.213 131.762 151.407 131.762 151.602V167.948C131.762 168.143 131.762 168.337 131.568 168.532C131.373 168.727 131.373 168.921 131.179 168.921L129.816 169.894Z" fill="#8B4E96"/>
<path d="M134.292 156.272C134.292 155.3 134.487 154.327 134.681 153.354C134.876 152.381 135.265 151.408 135.654 150.629C136.044 149.656 136.627 148.878 137.406 148.099C138.184 147.321 138.963 146.737 139.936 146.153C140.909 145.57 141.687 145.375 142.271 145.375C143.049 145.375 143.438 145.57 144.022 145.764C144.411 146.153 144.801 146.737 144.995 147.321C145.19 148.099 145.384 148.878 145.384 149.851C145.384 150.24 145.384 150.435 145.384 150.824C145.384 151.213 145.384 151.602 145.384 151.991C145.384 152.381 145.384 152.77 145.384 153.159C145.384 153.548 145.384 153.937 145.384 154.327C145.384 155.3 145.19 156.272 144.995 157.245C144.801 158.218 144.411 159.191 144.022 159.97C143.633 160.943 143.049 161.721 142.271 162.5C141.492 163.278 140.714 163.862 139.741 164.446C138.768 165.029 137.99 165.224 137.211 165.419C136.433 165.419 136.044 165.224 135.46 165.029C135.071 164.64 134.681 164.056 134.487 163.473C134.292 162.694 134.098 161.916 134.098 160.943C134.098 160.554 134.098 160.359 134.098 159.97C134.098 159.581 134.098 159.191 134.098 158.802C134.098 158.413 134.098 158.024 134.098 157.635C134.098 156.856 134.098 156.467 134.292 156.272ZM142.855 151.408C142.855 150.24 142.465 149.462 141.882 149.072C141.298 148.683 140.714 148.878 139.741 149.267C138.768 149.851 138.184 150.435 137.6 151.602C137.017 152.575 136.822 153.743 136.627 154.91C136.627 155.494 136.627 156.273 136.627 157.051C136.627 157.829 136.627 158.608 136.627 159.191C136.627 160.359 137.017 161.137 137.6 161.527C138.184 161.916 138.768 161.721 139.741 161.332C140.714 160.748 141.298 160.164 141.882 159.191C142.465 158.218 142.66 157.051 142.855 155.883C142.855 155.3 142.855 154.521 142.855 153.743C142.855 152.575 142.855 151.991 142.855 151.408Z" fill="#8B4E96"/>
<path d="M156.474 136.618C156.668 136.618 156.668 136.618 156.863 136.618C157.058 136.618 157.058 136.813 157.058 137.007V138.759C157.058 138.953 157.058 139.148 156.863 139.343C156.668 139.537 156.668 139.732 156.474 139.732L152.971 141.678V155.689C152.971 155.883 152.971 156.078 152.776 156.273C152.582 156.467 152.582 156.662 152.387 156.662L150.831 157.635C150.636 157.635 150.636 157.635 150.441 157.635C150.247 157.635 150.247 157.44 150.247 157.246V143.235L146.744 145.18C146.549 145.18 146.549 145.18 146.355 145.18C146.16 145.18 146.16 144.986 146.16 144.791V143.04C146.16 142.845 146.16 142.651 146.355 142.456C146.549 142.262 146.549 142.067 146.744 142.067L156.474 136.618Z" fill="#8B4E96"/>
<path d="M171.458 128.055C171.653 128.055 171.653 128.055 171.847 128.055C172.042 128.055 172.042 128.249 172.042 128.444V130.195C172.042 130.39 172.042 130.584 171.847 130.779C171.653 130.974 171.653 131.168 171.458 131.168L165.426 134.671V139.536L171.069 136.228C171.263 136.228 171.263 136.228 171.458 136.228C171.653 136.228 171.653 136.422 171.653 136.617V138.368C171.653 138.563 171.653 138.758 171.458 138.952C171.263 139.147 171.263 139.341 171.069 139.341L165.426 142.65V148.487C165.426 148.682 165.426 148.877 165.231 149.071C165.036 149.266 165.036 149.46 164.842 149.46L163.285 150.433C163.09 150.433 163.09 150.433 162.896 150.433C162.701 150.433 162.701 150.239 162.701 150.044V133.698C162.701 133.503 162.701 133.309 162.896 133.114C163.09 132.92 163.09 132.725 163.285 132.725L171.458 128.055Z" fill="#8B4E96"/>
<path d="M173.599 133.505C173.599 132.532 173.793 131.559 173.988 130.586C174.183 129.613 174.572 128.64 174.961 127.862C175.35 126.889 175.934 126.11 176.712 125.332C177.491 124.553 178.269 123.97 179.242 123.386C180.215 122.802 180.994 122.607 181.577 122.607C182.356 122.607 182.745 122.802 183.329 122.997C183.718 123.386 184.107 123.97 184.302 124.553C184.496 125.332 184.691 126.11 184.691 127.083C184.691 127.472 184.691 127.667 184.691 128.056C184.691 128.445 184.691 128.835 184.691 129.224C184.691 129.613 184.691 130.002 184.691 130.391C184.691 130.781 184.691 131.17 184.691 131.559C184.691 132.532 184.496 133.505 184.302 134.478C184.107 135.451 183.718 136.424 183.329 137.202C182.94 138.175 182.356 138.954 181.577 139.732C180.799 140.51 180.021 141.094 179.048 141.678C178.075 142.262 177.296 142.456 176.518 142.651C175.739 142.651 175.35 142.456 174.766 142.262C174.377 141.873 173.988 141.289 173.793 140.705C173.599 139.927 173.404 139.148 173.404 138.175C173.404 137.786 173.404 137.591 173.404 137.202C173.404 136.813 173.404 136.424 173.404 136.035C173.404 135.645 173.404 135.256 173.404 134.867C173.599 134.089 173.599 133.7 173.599 133.505ZM182.356 128.64C182.356 127.472 181.967 126.694 181.383 126.305C180.799 125.916 180.215 126.11 179.242 126.499C178.269 127.083 177.685 127.667 177.102 128.835C176.518 129.808 176.323 130.975 176.129 132.143C176.129 132.727 176.129 133.505 176.129 134.283C176.129 135.062 176.129 135.84 176.129 136.424C176.129 137.591 176.518 138.37 177.102 138.759C177.685 139.148 178.269 138.954 179.242 138.564C180.215 137.981 180.799 137.397 181.383 136.424C181.967 135.451 182.161 134.283 182.356 133.116C182.356 132.532 182.356 131.754 182.356 130.975C182.356 129.808 182.356 129.224 182.356 128.64Z" fill="#8B4E96"/>
<path d="M197.736 112.877C197.93 112.877 197.93 112.877 198.125 112.877C198.319 112.877 198.319 113.072 198.319 113.266V123.774C198.319 124.747 198.125 125.915 197.93 126.888C197.736 127.861 197.346 128.834 196.957 129.612C196.568 130.391 195.984 131.364 195.206 131.948C194.427 132.726 193.649 133.31 192.871 133.894C191.898 134.477 191.119 134.672 190.535 134.867C189.952 134.867 189.368 134.867 188.784 134.477C188.395 134.088 188.006 133.504 187.811 132.921C187.616 132.142 187.422 131.364 187.422 130.196V119.688C187.422 119.493 187.422 119.299 187.616 119.104C187.811 118.909 187.811 118.715 188.006 118.715L189.562 117.742C189.757 117.742 189.757 117.742 189.952 117.742C190.146 117.742 190.146 117.936 190.146 118.131V128.445C190.146 129.223 190.146 129.612 190.341 130.196C190.535 130.585 190.73 130.975 190.925 130.975C191.119 131.169 191.508 131.169 191.898 131.169C192.287 131.169 192.676 130.975 193.065 130.78C193.454 130.585 193.844 130.196 194.233 129.807C194.622 129.418 194.817 129.029 195.206 128.639C195.4 128.25 195.595 127.666 195.79 127.083C195.984 126.499 195.984 125.915 195.984 125.137V114.823C195.984 114.628 195.984 114.434 196.179 114.239C196.373 114.045 196.373 113.85 196.568 113.85L197.736 112.877Z" fill="#8B4E96"/>
<path d="M209.8 123.774C209.605 123.969 209.411 123.969 209.216 123.774C209.021 123.774 209.021 123.579 209.021 123.579L203.767 115.99V126.498C203.767 126.693 203.767 126.887 203.573 127.082C203.378 127.277 203.378 127.471 203.184 127.471L201.627 128.444C201.432 128.444 201.432 128.444 201.238 128.444C201.043 128.444 201.043 128.25 201.043 128.055V111.709C201.043 111.514 201.043 111.32 201.238 111.125C201.432 110.93 201.432 110.736 201.627 110.736L202.989 109.957C203.184 109.763 203.378 109.763 203.573 109.957C203.767 109.957 203.767 110.152 203.767 110.152L209.021 117.741V107.233C209.021 107.038 209.021 106.844 209.216 106.649C209.411 106.455 209.411 106.26 209.605 106.26L211.162 105.287C211.357 105.287 211.357 105.287 211.551 105.287C211.746 105.287 211.746 105.482 211.746 105.676V122.023C211.746 122.217 211.746 122.412 211.551 122.606C211.357 122.801 211.357 122.996 211.162 122.996L209.8 123.774Z" fill="#8B4E96"/>
<path d="M219.719 100.034C220.692 99.4497 221.47 99.2551 222.249 99.0605C223.027 99.0605 223.611 99.0606 224 99.4498C224.389 99.8389 224.779 100.228 224.973 101.007C225.168 101.785 225.362 102.563 225.362 103.731C225.362 104.898 225.362 106.261 225.362 107.428C225.362 108.596 225.168 109.569 224.973 110.542C224.779 111.515 224.389 112.488 224 113.461C223.611 114.239 223.027 115.212 222.249 115.796C221.47 116.574 220.692 117.158 219.914 117.742L215.049 120.466C214.854 120.466 214.854 120.466 214.659 120.466C214.465 120.466 214.465 120.272 214.465 120.077V103.731C214.465 103.536 214.465 103.342 214.659 103.147C214.854 102.953 214.854 102.758 215.049 102.758L219.719 100.034ZM223.027 105.288C223.027 104.704 222.833 104.315 222.833 103.925C222.638 103.536 222.443 103.147 222.249 102.953C222.054 102.758 221.665 102.758 221.276 102.758C220.887 102.758 220.497 102.953 219.914 103.342L217.384 104.898V116.38L220.108 114.823C220.692 114.434 221.081 114.239 221.47 113.655C221.86 113.266 222.249 112.877 222.443 112.293C222.638 111.904 222.833 111.32 223.027 110.736C223.222 110.153 223.222 109.569 223.222 108.985C223.027 107.817 223.027 106.65 223.027 105.288Z" fill="#8B4E96"/>
</svg>
