<svg width="16" height="17" viewBox="0 0 16 17" fill="none"
    xmlns="http://www.w3.org/2000/svg">
    <path d="M6.66667 12.5C7.89734 12.5 9.02867 12.0767 9.93134 11.3747L12.862 14.3053L13.8047 13.3627L10.874 10.432C11.5767 9.52868 12 8.39734 12 7.16668C12 4.22601 9.60734 1.83334 6.66667 1.83334C3.726 1.83334 1.33334 4.22601 1.33334 7.16668C1.33334 10.1073 3.726 12.5 6.66667 12.5ZM6.66667 3.16668C8.87267 3.16668 10.6667 4.96068 10.6667 7.16668C10.6667 9.37268 8.87267 11.1667 6.66667 11.1667C4.46067 11.1667 2.66667 9.37268 2.66667 7.16668C2.66667 4.96068 4.46067 3.16668 6.66667 3.16668Z" fill="#767fa6"/>
</svg>
