<svg width="120" height="25" viewBox="0 0 120 25" fill="none" xmlns="http://www.w3.org/2000/svg">
<path d="M21.947 9.679C21.8842 9.49387 21.7685 9.33119 21.6142 9.21106C21.46 9.09093 21.2739 9.0186 21.079 9.003L15.378 8.55L12.911 3.089C12.8325 2.91311 12.7047 2.76372 12.5431 2.65886C12.3815 2.55399 12.193 2.49814 12.0004 2.49803C11.8077 2.49793 11.6192 2.55357 11.4575 2.65826C11.2957 2.76295 11.1678 2.9122 11.089 3.088L8.62203 8.55L2.92103 9.003C2.72948 9.01817 2.54636 9.08821 2.39358 9.20473C2.2408 9.32125 2.12482 9.47932 2.05952 9.66003C1.99422 9.84074 1.98236 10.0364 2.02537 10.2237C2.06838 10.411 2.16443 10.5819 2.30203 10.716L6.51503 14.823L5.02503 21.275C4.97978 21.4703 4.99428 21.6747 5.06665 21.8616C5.13901 22.0486 5.26589 22.2095 5.43083 22.3234C5.59577 22.4374 5.79115 22.4991 5.99161 22.5007C6.19208 22.5022 6.38837 22.4434 6.55503 22.332L12 18.702L17.445 22.332C17.6154 22.4451 17.8162 22.5033 18.0207 22.4988C18.2251 22.4944 18.4232 22.4274 18.5884 22.3069C18.7536 22.1865 18.878 22.0183 18.9448 21.8251C19.0116 21.6318 19.0176 21.4228 18.962 21.226L17.133 14.826L21.669 10.744C21.966 10.476 22.075 10.058 21.947 9.679Z" fill="#31DFAF"/>
<path d="M45.947 9.679C45.8842 9.49387 45.7685 9.33119 45.6142 9.21106C45.46 9.09093 45.2739 9.0186 45.079 9.003L39.378 8.55L36.911 3.089C36.8325 2.91311 36.7047 2.76372 36.5431 2.65886C36.3815 2.55399 36.193 2.49814 36.0004 2.49803C35.8077 2.49793 35.6192 2.55357 35.4575 2.65826C35.2957 2.76295 35.1678 2.9122 35.089 3.088L32.622 8.55L26.921 9.003C26.7295 9.01817 26.5464 9.08821 26.3936 9.20473C26.2408 9.32125 26.1248 9.47932 26.0595 9.66003C25.9942 9.84074 25.9824 10.0364 26.0254 10.2237C26.0684 10.411 26.1644 10.5819 26.302 10.716L30.515 14.823L29.025 21.275C28.9798 21.4703 28.9943 21.6747 29.0666 21.8616C29.139 22.0486 29.2659 22.2095 29.4308 22.3234C29.5958 22.4374 29.7911 22.4991 29.9916 22.5007C30.1921 22.5022 30.3884 22.4434 30.555 22.332L36 18.702L41.445 22.332C41.6154 22.4451 41.8162 22.5033 42.0207 22.4988C42.2251 22.4944 42.4232 22.4274 42.5884 22.3069C42.7536 22.1865 42.878 22.0183 42.9448 21.8251C43.0116 21.6318 43.0176 21.4228 42.962 21.226L41.133 14.826L45.669 10.744C45.966 10.476 46.075 10.058 45.947 9.679Z" fill="#31DFAF"/>
<path d="M69.947 9.679C69.8842 9.49387 69.7685 9.33119 69.6142 9.21106C69.46 9.09093 69.2739 9.0186 69.079 9.003L63.378 8.55L60.911 3.089C60.8325 2.91311 60.7047 2.76372 60.5431 2.65886C60.3815 2.55399 60.193 2.49814 60.0004 2.49803C59.8077 2.49793 59.6192 2.55357 59.4575 2.65826C59.2957 2.76295 59.1678 2.9122 59.089 3.088L56.622 8.55L50.921 9.003C50.7295 9.01817 50.5464 9.08821 50.3936 9.20473C50.2408 9.32125 50.1248 9.47932 50.0595 9.66003C49.9942 9.84074 49.9824 10.0364 50.0254 10.2237C50.0684 10.411 50.1644 10.5819 50.302 10.716L54.515 14.823L53.025 21.275C52.9798 21.4703 52.9943 21.6747 53.0666 21.8616C53.139 22.0486 53.2659 22.2095 53.4308 22.3234C53.5958 22.4374 53.7911 22.4991 53.9916 22.5007C54.1921 22.5022 54.3884 22.4434 54.555 22.332L60 18.702L65.445 22.332C65.6154 22.4451 65.8162 22.5033 66.0207 22.4988C66.2251 22.4944 66.4232 22.4274 66.5884 22.3069C66.7536 22.1865 66.878 22.0183 66.9448 21.8251C67.0116 21.6318 67.0176 21.4228 66.962 21.226L65.133 14.826L69.669 10.744C69.966 10.476 70.075 10.058 69.947 9.679Z" fill="#31DFAF"/>
<path d="M93.947 9.679C93.8842 9.49387 93.7685 9.33119 93.6142 9.21106C93.46 9.09093 93.2739 9.0186 93.079 9.003L87.378 8.55L84.911 3.089C84.8325 2.91311 84.7047 2.76372 84.5431 2.65886C84.3815 2.55399 84.193 2.49814 84.0004 2.49803C83.8077 2.49793 83.6192 2.55357 83.4575 2.65826C83.2957 2.76295 83.1678 2.9122 83.089 3.088L80.622 8.55L74.921 9.003C74.7295 9.01817 74.5464 9.08821 74.3936 9.20473C74.2408 9.32125 74.1248 9.47932 74.0595 9.66003C73.9942 9.84074 73.9824 10.0364 74.0254 10.2237C74.0684 10.411 74.1644 10.5819 74.302 10.716L78.515 14.823L77.025 21.275C76.9798 21.4703 76.9943 21.6747 77.0666 21.8616C77.139 22.0486 77.2659 22.2095 77.4308 22.3234C77.5958 22.4374 77.7911 22.4991 77.9916 22.5007C78.1921 22.5022 78.3884 22.4434 78.555 22.332L84 18.702L89.445 22.332C89.6154 22.4451 89.8162 22.5033 90.0207 22.4988C90.2251 22.4944 90.4232 22.4274 90.5884 22.3069C90.7536 22.1865 90.878 22.0183 90.9448 21.8251C91.0116 21.6318 91.0176 21.4228 90.962 21.226L89.133 14.826L93.669 10.744C93.966 10.476 94.075 10.058 93.947 9.679Z" fill="#31DFAF"/>
<path d="M117.947 9.679C117.884 9.49387 117.768 9.33119 117.614 9.21106C117.46 9.09093 117.274 9.0186 117.079 9.003L111.378 8.55L108.911 3.089C108.832 2.91311 108.705 2.76372 108.543 2.65886C108.381 2.55399 108.193 2.49814 108 2.49803C107.808 2.49793 107.619 2.55357 107.457 2.65826C107.296 2.76295 107.168 2.9122 107.089 3.088L104.622 8.55L98.921 9.003C98.7295 9.01817 98.5464 9.08821 98.3936 9.20473C98.2408 9.32125 98.1248 9.47932 98.0595 9.66003C97.9942 9.84074 97.9824 10.0364 98.0254 10.2237C98.0684 10.411 98.1644 10.5819 98.302 10.716L102.515 14.823L101.025 21.275C100.98 21.4703 100.994 21.6747 101.067 21.8616C101.139 22.0486 101.266 22.2095 101.431 22.3234C101.596 22.4374 101.791 22.4991 101.992 22.5007C102.192 22.5022 102.388 22.4434 102.555 22.332L108 18.702L113.445 22.332C113.615 22.4451 113.816 22.5033 114.021 22.4988C114.225 22.4944 114.423 22.4274 114.588 22.3069C114.754 22.1865 114.878 22.0183 114.945 21.8251C115.012 21.6318 115.018 21.4228 114.962 21.226L113.133 14.826L117.669 10.744C117.966 10.476 118.075 10.058 117.947 9.679Z" fill="#31DFAF"/>
</svg>
