<svg width="24" height="24" viewBox="0 0 24 24" fill="none" xmlns="http://www.w3.org/2000/svg">
<path d="M11.707 2.293C11.52 2.105 11.265 2 11 2H6C5.735 2 5.48 2.105 5.293 2.293L2.293 5.293C2.105 5.48 2 5.734 2 6V11C2 11.266 2.105 11.52 2.293 11.707L12.293 21.707C12.488 21.902 12.744 22 13 22C13.256 22 13.512 21.902 13.707 21.707L21.707 13.707C22.098 13.316 22.098 12.684 21.707 12.293L11.707 2.293ZM13 19.586L4 10.586V6.414L6.414 4H10.586L19.586 13L13 19.586Z" fill="white"/>
<path d="M10.647 12.294C11.5566 12.294 12.294 11.5566 12.294 10.647C12.294 9.73739 11.5566 9 10.647 9C9.73739 9 9 9.73739 9 10.647C9 11.5566 9.73739 12.294 10.647 12.294Z" fill="white"/>
</svg>
