<svg width="25" height="24" viewBox="0 0 25 24" fill="none" xmlns="http://www.w3.org/2000/svg">
<g clip-path="url(#clip0_248_5099)">
<path d="M15.0033 11.5801C15.6422 11.5801 16.2551 11.3263 16.7069 10.8745C17.1587 10.4226 17.4126 9.8098 17.4126 9.17081C17.4126 8.53181 17.1587 7.91899 16.7069 7.46715C16.2551 7.01531 15.6422 6.76147 15.0033 6.76147C14.3643 6.76147 13.7514 7.01531 13.2996 7.46715C12.8478 7.91899 12.5939 8.53181 12.5939 9.17081C12.5939 9.8098 12.8478 10.4226 13.2996 10.8745C13.7514 11.3263 14.3643 11.5801 15.0033 11.5801ZM8.42192 17.6895C8.16462 17.822 7.87329 17.8737 7.5861 17.8378C7.29892 17.8018 7.0293 17.68 6.81258 17.4881C6.71675 17.4038 6.59134 17.361 6.46394 17.3691C6.33654 17.3772 6.21759 17.4356 6.13325 17.5315C6.04891 17.6273 6.0061 17.7527 6.01422 17.8801C6.02235 18.0075 6.08075 18.1265 6.17658 18.2108C6.45827 18.4597 6.79427 18.6392 7.15773 18.735C7.52119 18.8308 7.90202 18.8402 8.26978 18.7626C8.63754 18.6849 8.98202 18.5222 9.27568 18.2876C9.56934 18.053 9.80404 17.7529 9.96101 17.4114C10.118 17.0699 10.1929 16.6964 10.1797 16.3207C10.1665 15.9451 10.0656 15.5777 9.88507 15.248C9.70454 14.9184 9.44937 14.6355 9.13998 14.422C8.83059 14.2086 8.47555 14.0705 8.10325 14.0188C8.04048 14.0093 7.97644 14.0125 7.91494 14.0282C7.85344 14.044 7.79576 14.072 7.74534 14.1106C7.69493 14.1492 7.65282 14.1976 7.62153 14.2528C7.59024 14.3081 7.57042 14.3691 7.56325 14.4321C7.55501 14.4948 7.5592 14.5585 7.57558 14.6196C7.59196 14.6807 7.62021 14.7379 7.65871 14.788C7.69722 14.8382 7.74523 14.8803 7.8 14.9118C7.85477 14.9434 7.91523 14.9639 7.97792 14.9721C8.28454 15.0134 8.56985 15.1519 8.79197 15.3673C9.01409 15.5826 9.16131 15.8635 9.21203 16.1687C9.26274 16.4739 9.21428 16.7873 9.07376 17.063C8.93323 17.3386 8.70804 17.5619 8.43125 17.7001L8.42192 17.6895Z" fill="#45B0E1"/>
<path d="M11.6313 0.016363C8.64566 0.0134314 5.77463 1.16533 3.619 3.23101C1.46336 5.29668 0.190187 8.11602 0.0659173 11.099C0.063159 11.1645 0.0737987 11.2298 0.0971842 11.2911C0.12057 11.3523 0.156209 11.4081 0.201917 11.455C0.271251 11.5217 0.357917 11.5644 0.451251 11.5804C0.779251 11.687 3.34325 12.7937 4.83792 13.5084C4.91952 13.5434 5.00908 13.5557 5.09711 13.544C5.18514 13.5322 5.26835 13.4969 5.33792 13.4417C5.7133 13.1144 6.15087 12.8662 6.62443 12.712C7.09799 12.5579 7.5978 12.5008 8.09392 12.5444C8.17574 12.5535 8.25854 12.5415 8.33441 12.5096C8.41028 12.4776 8.47667 12.4267 8.52725 12.3617L10.5606 9.7017C10.6343 9.60552 10.6691 9.48505 10.6579 9.36436V9.15103C10.6641 8.30755 10.9161 7.48417 11.3832 6.78178C11.8502 6.07939 12.512 5.52847 13.2875 5.19653C14.0629 4.86459 14.9183 4.76603 15.7489 4.91293C16.5796 5.05983 17.3493 5.44582 17.9638 6.02359C18.5784 6.60137 19.0111 7.34585 19.2089 8.16583C19.4067 8.98582 19.361 9.84569 19.0775 10.6401C18.794 11.4345 18.2849 12.129 17.6126 12.6385C16.9404 13.1479 16.1341 13.4502 15.2926 13.5084C15.194 13.5155 15.1 13.5527 15.0233 13.615L11.7939 16.2644C11.7426 16.307 11.7008 16.3599 11.6709 16.4195C11.6411 16.4792 11.624 16.5444 11.6206 16.611C11.5664 17.5943 11.138 18.5196 10.4232 19.197C9.70834 19.8744 8.76137 20.2525 7.77658 20.2537C6.93371 20.2605 6.11251 19.9867 5.44238 19.4755C4.77225 18.9642 4.29128 18.2444 4.07525 17.4297C4.05761 17.3637 4.02614 17.3023 3.98292 17.2494C3.9397 17.1965 3.88573 17.1534 3.82458 17.123L1.99392 16.2257C1.90268 16.1786 1.79875 16.1619 1.69734 16.178C1.59592 16.1941 1.50232 16.2423 1.43023 16.3154C1.35814 16.3886 1.31133 16.4829 1.29664 16.5845C1.28195 16.6861 1.30015 16.7898 1.34858 16.8804C2.28936 18.7056 3.69912 20.2474 5.43303 21.3475C7.16693 22.4475 9.16245 23.0661 11.2145 23.1396C13.2666 23.2131 15.3013 22.739 17.1095 21.7659C18.9177 20.7928 20.4342 19.3558 21.5032 17.6026C22.5722 15.8494 23.1552 13.8432 23.1922 11.7901C23.2292 9.737 22.7189 7.71109 21.7137 5.9205C20.7086 4.12991 19.2449 2.63922 17.4729 1.60159C15.7009 0.563962 13.6847 0.0168135 11.6313 0.016363Z" fill="#45B0E1"/>
</g>
<defs>
<clipPath id="clip0_248_5099">
<rect width="24" height="24" fill="white" transform="translate(0.065918 0.000244141)"/>
</clipPath>
</defs>
</svg>
