<svg width="60" height="60" viewBox="0 0 28 28" fill="none" xmlns="http://www.w3.org/2000/svg">
<circle cx="14" cy="14" r="14" fill="#5F69A4"/>
<mask id="mask0_204_9572" style="mask-type:alpha" maskUnits="userSpaceOnUse" x="0" y="0" width="28" height="28">
<circle cx="14" cy="14" r="14" fill="#5F69A4"/>
</mask>
<g mask="url(#mask0_204_9572)">
<path d="M16.4111 5C13.3412 5 10.8368 7.47133 10.813 10.5183L7.32692 15.4931C6.35433 15.4051 5.51558 15.6058 4.774 16.0559L0 14.1337V19.3834L2.82333 20.5137C3.23125 22.3828 4.9115 23.7917 6.89975 23.7917C9.06125 23.7917 10.8524 22.1389 11.0495 20.0343L16.4166 16.1302C19.4957 16.1302 22 13.6451 22 10.5633L21.9991 10.5623C21.9991 7.49517 19.4948 5 16.4111 5ZM6.89975 22.6843C5.72 22.6843 4.70433 22.0234 4.18825 21.06C4.68875 21.2507 5.19475 21.4606 5.69617 21.6568C6.94925 22.1701 8.37283 21.5587 8.87333 20.3111C9.37933 19.0635 8.76517 17.6555 7.51392 17.1559L6.237 16.6426C6.45792 16.5931 6.67883 16.5693 6.89975 16.5693C8.60383 16.5693 9.96875 17.9287 9.96875 19.6263C9.96875 21.3249 8.60383 22.6843 6.89975 22.6843ZM16.4166 14.2913C14.344 14.2913 12.6601 12.6276 12.6601 10.5633C12.6601 8.50808 14.3394 6.83517 16.4166 6.83517C18.4745 6.83517 20.1584 8.50808 20.1584 10.5633C20.1584 12.6331 18.4736 14.2968 16.4166 14.2913Z" fill="#0A1017"/>
<path d="M16.4283 7.57227C14.7738 7.57227 13.4336 8.90785 13.4336 10.556C13.4336 12.2042 14.7692 13.5398 16.4283 13.5398C18.0728 13.5398 19.4231 12.2088 19.4231 10.556C19.4231 8.90327 18.0728 7.57227 16.4283 7.57227Z" fill="#0A1017"/>
</g>
</svg>
