<svg width="37" height="24" viewBox="0 0 37 24" fill="none" xmlns="http://www.w3.org/2000/svg">
<path d="M4.33673 10.4568V11.9638L8.40196 11.5166V9.88557L4.33673 10.4568ZM5.63402 12.0554V17.2192H7.12234V11.9033L5.63402 12.0554ZM8.95099 9.80835V17.2192H10.5193V9.58794L8.95099 9.80843V9.80835ZM10.8114 9.54676V11.2516L13.076 11.0025V9.22858L10.8114 9.54684V9.54676ZM10.8114 12.5205V14.2563L12.298 14.1752V12.3925L10.8114 12.5204V12.5205ZM10.8114 15.5075V17.2192H13.076V15.4392L10.8114 15.5074V15.5075ZM18.9325 8.40287V17.2192H20.9884V8.11399L18.9325 8.40295V8.40287ZM21.3723 8.05997V10.0879L24.3684 9.75851V7.6388L21.3723 8.05997ZM21.3723 11.6131V13.6786L23.3361 13.5714V11.4449L21.3723 11.6131ZM21.3723 15.1884V17.2193H24.3684V15.0978L21.3723 15.1884ZM13.6752 9.14422V17.2193H15.4617V8.89314L13.6752 9.1443V9.14422ZM15.7951 15.3572V17.2192H18.3882V15.2789L15.7951 15.3572V15.3572ZM31.0854 7.53911C30.4356 6.92523 29.483 6.67343 28.4409 6.82313V9.07238C28.8629 9.04894 29.2048 9.20554 29.3572 9.52084C29.5977 10.0179 29.3495 10.7638 28.7641 11.4548C27.8604 12.5212 25.4575 14.7038 25.4575 14.7038L28.907 14.5904C31.0148 12.5312 31.7717 11.2813 31.9075 9.72126C31.9789 8.89595 31.6793 8.10066 31.0854 7.53911ZM32.029 17.2193V14.8658L25.0323 15.0765L32.029 17.2193ZM25.0323 15.0765L25.033 17.2192H32.029L25.0323 15.0765ZM28.0387 6.87353C26.0061 7.3065 25.008 8.80188 25.1231 11.2419L27.2904 11.0496C27.1916 9.6711 27.6133 9.34409 28.0397 9.16429L28.0387 6.87361" fill="white"/>
</svg>
