<svg width="53" height="16" viewBox="0 0 53 16" fill="none" xmlns="http://www.w3.org/2000/svg">
<path d="M48.5688 0.22876H45.2998C44.3115 0.22876 43.5513 0.533522 43.0952 1.524L36.8612 15.7716H41.2706C41.2706 15.7716 42.0308 13.8669 42.1829 13.4097C42.639 13.4097 46.9723 13.4097 47.5805 13.4097C47.7326 13.943 48.1127 15.6954 48.1127 15.6954H52.0659L48.5688 0.22876ZM43.3992 10.2097C43.7794 9.29543 45.0718 5.86686 45.0718 5.86686C45.0718 5.94305 45.4519 4.95257 45.6039 4.41924L45.908 5.79066C45.908 5.79066 46.7443 9.524 46.8963 10.2859H43.3992V10.2097Z" fill="#3362AB"/>
<path d="M37.1653 10.6669C37.1653 13.8669 34.2764 16.0002 29.7911 16.0002C27.8905 16.0002 26.0659 15.6193 25.0776 15.1621L25.6858 11.6574L26.218 11.886C27.5864 12.4955 28.4987 12.7241 30.1712 12.7241C31.3875 12.7241 32.6799 12.2669 32.6799 11.2002C32.6799 10.5145 32.1478 10.0574 30.4753 9.29548C28.8788 8.53358 26.7501 7.31453 26.7501 5.10501C26.7501 2.05739 29.715 0.000244141 33.8963 0.000244141C35.4928 0.000244141 36.8612 0.305006 37.6975 0.685958L37.0893 4.03834L36.7852 3.73358C36.025 3.42882 35.0367 3.12405 33.5922 3.12405C31.9957 3.20024 31.2355 3.88596 31.2355 4.49548C31.2355 5.1812 32.1478 5.71453 33.5922 6.40024C36.025 7.5431 37.1653 8.83834 37.1653 10.6669Z" fill="#3362AB"/>
<path d="M0.065918 0.381178L0.141941 0.076416H6.67995C7.59223 0.076416 8.27644 0.381178 8.50451 1.37165L9.94896 8.2288C8.50451 4.57165 5.15948 1.60023 0.065918 0.381178Z" fill="#F9B50B"/>
<path d="M19.1478 0.229023L12.5337 15.6957H8.04836L4.24719 2.74331C6.98403 4.49569 9.26474 7.23855 10.101 9.14331L10.5571 10.7433L14.6624 0.152832H19.1478V0.229023Z" fill="#3362AB"/>
<path d="M20.8963 0.152832H25.0776L22.4168 15.6957H18.2355L20.8963 0.152832Z" fill="#3362AB"/>
</svg>
