<svg width="60" height="60" viewBox="0 0 24 28" fill="none" xmlns="http://www.w3.org/2000/svg">
<path d="M23.2495 2.35848C23.0079 2.28615 17.2738 0.583984 11.9987 0.583984C7.30782 0.583984 1.02701 2.28213 0.761831 2.35452C0.638379 2.3882 0.529426 2.46154 0.45176 2.56324C0.374094 2.66494 0.332024 2.78935 0.332031 2.91732V15.7507C0.332031 22.4772 11.3051 27.1747 11.7722 27.3718C11.844 27.4018 11.9209 27.4173 11.9987 27.4173C12.0765 27.4173 12.1534 27.4018 12.2251 27.3718C12.6923 27.1747 23.6654 22.4772 23.6654 15.7507V2.91732C23.6654 2.79183 23.6249 2.66968 23.55 2.56901C23.4751 2.46834 23.3697 2.39451 23.2495 2.35848Z" fill="#F7FF00"/>
<path d="M23.2483 2.35848C23.0067 2.28615 17.2726 0.583984 11.9975 0.583984C11.7933 0.583984 11.5848 0.588301 11.375 0.594426C15.0006 0.761128 18.5941 1.35321 22.0816 2.35848C22.2018 2.39451 22.3072 2.46834 22.3821 2.56901C22.457 2.66968 22.4975 2.79183 22.4975 2.91732V15.7507C22.4975 21.8849 13.3754 26.3298 11.4141 27.2148C11.6035 27.3002 11.7299 27.3544 11.771 27.3717C11.8427 27.4018 11.9197 27.4173 11.9975 27.4173C12.0752 27.4173 12.1522 27.4018 12.2239 27.3717C12.6911 27.1747 23.6641 22.4772 23.6641 15.7507V2.91732C23.6641 2.79183 23.6237 2.66968 23.5488 2.56901C23.4739 2.46834 23.3685 2.39451 23.2483 2.35848Z" fill="#F7FF00"/>
<path d="M20.7474 6.09961H14.3307C13.4953 6.09861 12.6802 6.35653 11.9974 6.83788C11.3146 6.35653 10.4995 6.09861 9.66406 6.09961H3.2474C3.09269 6.09961 2.94431 6.16107 2.83492 6.27047C2.72552 6.37986 2.66406 6.52824 2.66406 6.68295V9.91747C2.66533 11 3.09594 12.0379 3.86144 12.8034C4.62694 13.5689 5.66482 13.9995 6.7474 14.0008H9.66406C10.6143 14.0008 11.4802 13.2124 11.9974 12.6188C12.5146 13.2124 13.3805 14.0008 14.3307 14.0008H17.2474C18.33 13.9995 19.3678 13.5689 20.1333 12.8034C20.8988 12.0379 21.3295 11 21.3307 9.91747V6.68295C21.3307 6.52824 21.2693 6.37986 21.1599 6.27047C21.0505 6.16107 20.9021 6.09961 20.7474 6.09961Z" fill="#0A1017"/>
<path d="M8.5 8.16797H5.58333C5.42862 8.16797 5.28025 8.22943 5.17085 8.33882C5.06146 8.44822 5 8.59659 5 8.7513V9.91797C5.00051 10.3819 5.18505 10.8268 5.51313 11.1548C5.8412 11.4829 6.28603 11.6675 6.75 11.668H9.66667C9.82138 11.668 9.96975 11.6065 10.0791 11.4971C10.1885 11.3877 10.25 11.2393 10.25 11.0846V9.91797C10.2495 9.454 10.065 9.00917 9.73687 8.68109C9.4088 8.35302 8.96397 8.16848 8.5 8.16797Z" fill="#F7FF00"/>
<path d="M18.4167 8.16797H15.5C15.036 8.16848 14.5912 8.35302 14.2631 8.68109C13.935 9.00917 13.7505 9.454 13.75 9.91797V11.0846C13.75 11.2393 13.8115 11.3877 13.9209 11.4971C14.0303 11.6065 14.1786 11.668 14.3333 11.668H17.25C17.714 11.6675 18.1588 11.4829 18.4869 11.1548C18.815 10.8268 18.9995 10.3819 19 9.91797V8.7513C19 8.59659 18.9385 8.44822 18.8291 8.33882C18.7197 8.22943 18.5714 8.16797 18.4167 8.16797Z" fill="#F7FF00"/>
</svg>
