<svg width="25" height="24" viewBox="0 0 25 24" fill="none" xmlns="http://www.w3.org/2000/svg">
<path d="M16.0171 11.551L13.4457 8.79916L10.5885 11.2702L13.16 14.0781L16.0171 11.551Z" fill="#137ABE"/>
<path d="M8.53139 6.55278L11.1028 9.30459L13.96 6.83358L11.3885 4.08177L8.53139 6.55278Z" fill="#137ABE"/>
<path d="M18.0171 16.3245L15.4457 13.5727L12.5885 16.0999L15.16 18.8517L18.0171 16.3245Z" fill="#137ABE"/>
<path d="M15.0457 20.9296L10.36 15.8191L11.6743 14.6959L8.35997 11.1017L9.67425 9.9785L6.35997 6.3843L11.56 1.83539L13.2171 3.57633L16.0743 1.16148L17.7314 2.84626L18.8171 1.89155C18.5885 1.77923 18.3028 1.61075 18.0743 1.49843C16.4171 0.824519 14.6457 0.375244 12.76 0.375244C6.18854 0.375244 0.817108 5.59807 0.817108 12.0002C0.817108 18.4024 6.18854 23.6252 12.8171 23.6252C14.9885 23.6252 16.9885 23.0637 18.7028 22.1089C19.2743 21.772 19.7885 21.435 20.3028 21.0981L17.9028 18.4586L15.0457 20.9296Z" fill="#137ABE"/>
<path d="M13.7885 5.20495L15.6743 7.28285L17.8457 5.42959L15.9028 3.35169L13.7885 5.20495Z" fill="#137ABE"/>
<path d="M19.7885 9.58539L17.8457 7.50749L15.7314 9.41691L17.6743 11.4387L19.7885 9.58539Z" fill="#137ABE"/>
<path d="M21.6171 13.9658L19.6743 11.8879L17.56 13.7412L19.5028 15.8752L21.6171 13.9658Z" fill="#137ABE"/>
<path d="M21.7314 7.11437L20.3028 8.34988L21.6171 9.75387L22.9885 8.51836L21.7314 7.11437Z" fill="#137ABE"/>
<path d="M22.1314 12.4495L23.3885 13.8535L24.8171 12.618L23.5028 11.214L22.1314 12.4495Z" fill="#137ABE"/>
<path d="M18.4743 4.25024L19.7885 5.65423L21.16 4.41872L19.9028 3.01474L18.4743 4.25024Z" fill="#137ABE"/>
<path d="M19.4457 17.9531L21.3885 20.031L23.5028 18.1778L21.56 16.0999L19.4457 17.9531Z" fill="#137ABE"/>
</svg>
