<svg width="60" height="60" viewBox="0 0 28 28" fill="none" xmlns="http://www.w3.org/2000/svg">
<rect width="28" height="28"/>
<path d="M20.9808 6.89124L19.3436 5.22901L17.5859 3.49121H10.4002L8.68771 5.22901L7.05078 6.89124H12.2895V21.9043L14.0158 23.611L15.7421 21.9043V6.89124L14.0158 5.22901L15.7425 6.89124H20.9808Z" fill="#5F69A4"/>
<path d="M19.2857 8.51562H17.6376V15.2141L15.9157 16.9155L17.1282 18.0926L18.3529 19.2818L20.9881 16.6763L20.9884 8.51562H19.2857ZM10.3983 15.2141V8.51562H7.04688V16.6763L9.6831 19.2818L10.9078 18.0926L12.1193 16.9155L10.3983 15.2141Z" fill="#5F69A4"/>
<path d="M10.143 2.57601L5.90222 6.81475V17.0897L13.9944 25.0311L22.0863 17.0897V6.81508L17.8458 2.57601H10.143ZM5.1239 6.30363L9.63422 1.79736L9.76782 1.66309H18.22L18.3536 1.79736L22.8642 6.30363L22.9995 6.43925V17.4693L22.8625 17.6035L14.3132 25.9936L13.9941 26.3067L13.6746 25.9936L5.12559 17.6035L4.98828 17.4693V6.43925L5.1239 6.30363Z" fill="#5F69A4"/>
</svg>
