<svg width="60" height="60" viewBox="0 0 28 28" fill="none" xmlns="http://www.w3.org/2000/svg">
<path d="M6.24003 2.37541C6.22589 2.38629 6.21501 2.39826 6.20195 2.40914C6.28138 2.32535 6.39564 2.23504 6.47072 2.18607C8.66223 0.761698 11.1943 0 14.0039 0C16.6318 0 19.0931 0.725789 21.1943 1.98803C21.3467 2.07835 21.7623 2.36344 21.9767 2.62242V2.6235C19.9495 0.388466 13.9908 5.1839 13.9908 5.1839C11.9299 3.59521 10.0344 2.51251 8.62306 2.12731C7.44351 1.80414 6.62741 2.07399 6.24003 2.37541ZM24.2727 4.48857C24.2107 4.42002 24.1432 4.35582 24.0812 4.28509C23.5686 3.72252 22.9386 3.58651 22.3706 3.6235C21.8537 3.78564 19.4653 4.64635 16.5219 7.42546C16.5219 7.42546 19.8352 10.6474 21.8646 13.9412C23.8918 17.235 25.104 19.8237 24.3586 23.4168C26.6209 20.9304 28.0006 17.6268 28.0006 13.9989C28.0006 10.3275 26.5871 6.98585 24.2727 4.48857ZM19.215 15.3482C18.3162 14.3395 16.9789 12.8945 15.2128 11.1382C14.8265 10.7541 14.4185 10.3536 13.9898 9.93906C13.9898 9.93906 13.3445 10.5843 12.5045 11.4331V11.432C11.4294 12.518 10.0355 13.9347 9.2618 14.7617C7.88421 16.2318 3.93753 20.8487 3.71555 23.4374C3.71555 23.4374 2.83742 21.3841 4.76452 16.6485C6.02349 13.5528 9.82763 8.90424 11.4163 7.38955C11.4163 7.38955 9.96473 5.79217 8.14319 4.68879L8.13231 4.68553C8.13231 4.68553 8.11163 4.66921 8.07899 4.64853C7.20304 4.12622 6.24656 3.72361 5.326 3.67029C4.38584 3.73667 3.79063 4.42437 3.79063 4.42437C1.44134 6.92927 0.00390625 10.296 0.00390625 14C0.00390625 21.7312 6.27159 28 14.0039 28C18.1073 28 21.7993 26.2307 24.3608 23.4178C24.3597 23.4135 24.0659 21.568 22.1824 18.9206C21.7395 18.3003 20.1214 16.3645 19.215 15.3482Z" fill="#35C936"/>
</svg>
