<svg width="25" height="24" viewBox="0 0 25 24" fill="none" xmlns="http://www.w3.org/2000/svg">
<path d="M24.7759 9.91172C24.6505 9.16026 23.9606 8.65928 23.0198 8.65928C22.7062 8.65928 22.4553 8.65928 22.1417 8.65928C21.5772 8.59666 21.4518 8.78453 21.4518 9.22288C21.4518 11.4147 21.4518 13.5438 21.4518 15.7356C21.4518 16.8628 20.3228 18.0526 19.0057 18.3031C14.8663 19.2424 10.7268 20.1191 6.58728 21.0585C6.14825 21.1837 5.6465 21.1837 5.14474 21.1837C4.95659 21.1837 4.64299 21.0585 4.58027 20.8706C4.51755 20.7454 4.70571 20.4949 4.83115 20.3696C5.01931 20.2444 5.27019 20.1191 5.52106 19.9939C6.2737 19.7434 7.08904 19.4929 7.84167 19.2424C10.9149 18.2405 13.9882 17.2385 17.0614 16.1739C18.4413 15.7356 19.1939 14.7963 19.1939 13.6064C19.2566 9.8491 19.1939 6.02915 19.1939 2.27182C19.1939 1.6456 18.8803 1.14462 18.1904 0.894135C17.375 0.581025 16.6224 0.831509 15.9325 1.14462C11.5421 3.21115 7.21448 5.27769 2.82412 7.34422C1.56973 7.97044 0.817108 8.84715 0.817108 10.0996C0.817108 13.6691 0.817108 17.2385 0.817108 20.808C0.817108 20.9958 0.817093 21.1837 0.879812 21.309C1.31885 22.4988 2.44781 23.2502 3.95308 23.2502C7.02633 23.2502 10.0996 23.2502 13.1728 23.2502C16.2461 23.2502 19.2566 23.2502 22.3299 23.2502C23.0198 23.2502 23.5842 23.125 24.086 22.6866C24.7132 22.1857 24.7132 21.4968 24.7132 20.8706C24.7132 17.3638 24.7132 13.9195 24.7132 10.4127C24.8386 10.3501 24.8386 10.0996 24.7759 9.91172ZM11.9812 8.78453C12.2948 7.97044 12.9847 7.46946 13.9882 7.34422C14.6781 7.2816 15.2426 7.65733 15.368 8.28355C15.4934 9.22288 14.3645 10.3501 13.1728 10.3501C12.232 10.3501 11.6676 9.66124 11.9812 8.78453Z" fill="#E47418"/>
</svg>
